<svg width="296" height="323" viewBox="0 0 296 323" fill="none" xmlns="http://www.w3.org/2000/svg">
<path d="M138.183 21.1696H102.281V8.63477C102.281 4.46568 98.8443 1.08636 94.6046 1.08636H56.7223C52.4826 1.08636 49.0461 4.46568 49.0461 8.63477V21.1696H13.144C6.43718 21.1696 1 26.5163 1 33.1114V197.048C1 203.643 6.43718 208.991 13.144 208.991H47.7408V214.245C47.7408 218.653 51.3749 222.227 55.858 222.227C60.3411 222.227 63.9753 218.653 63.9753 214.245V208.991H87.3533V214.245C87.3533 218.653 90.9875 222.227 95.4705 222.227C99.9536 222.227 103.588 218.653 103.588 214.245V208.991H138.185C144.891 208.991 150.329 203.644 150.329 197.048V33.1122C150.327 26.5163 144.89 21.1696 138.183 21.1696ZM63.1356 10.2268H88.1904C90.2945 10.2268 92.0001 11.904 92.0001 13.9731C92.0001 16.0422 90.2945 17.7194 88.1904 17.7194H63.1356C61.0315 17.7194 59.3259 16.0422 59.3259 13.9731C59.3259 11.904 61.0315 10.2268 63.1356 10.2268Z" stroke="#191918" stroke-miterlimit="10"/>
<path opacity="0.74" d="M130.691 198.247H19.4543C15.1272 198.247 11.6187 194.798 11.6187 190.542V38.7834C11.6187 34.5275 15.1264 31.0782 19.4543 31.0782H130.691C135.019 31.0782 138.527 34.5275 138.527 38.7834V190.542C138.527 194.798 135.019 198.247 130.691 198.247Z" fill="white"/>
<path d="M11.6187 102.451V191.976C11.6187 195.44 14.4742 198.248 17.9973 198.248H44.8245C48.7784 198.248 51.9834 201.4 51.9834 205.288V212.551C51.9834 214.265 53.1622 215.836 54.8737 216.159C57.1772 216.593 59.1914 214.869 59.1914 212.682V205.288C59.1914 201.4 62.3965 198.248 66.3503 198.248H84.5346C88.4884 198.248 91.6934 201.4 91.6934 205.288V212.551C91.6934 214.265 92.8723 215.836 94.5838 216.159C96.8872 216.593 98.9015 214.869 98.9015 212.682V205.288C98.9015 201.4 102.106 198.248 106.06 198.248H132.147C135.669 198.248 138.526 195.44 138.526 191.976V102.451H11.6187Z" fill="#801414"/>
<path d="M128 124.183H70.4165V177.164H128V124.183Z" fill="white"/>
<path d="M99.208 144.659V170.408" stroke="#191918" stroke-miterlimit="10"/>
<path d="M105.498 163.056H121.635" stroke="#191918" stroke-miterlimit="10"/>
<path d="M105.498 167.741H121.635" stroke="#191918" stroke-miterlimit="10"/>
<path d="M285.19 165.788C255.579 135.23 218.324 172.635 218.324 172.635C218.324 172.635 181.069 135.23 151.457 165.788C117.114 201.228 180.34 274.923 218.324 274.923C258.696 274.923 319.533 201.228 285.19 165.788Z" fill="#801414"/>
<path d="M226.705 192.022H210.179V243.241H226.705V192.022Z" fill="white"/>
<path d="M244.485 225.757V209.507H192.399V225.757H244.485Z" fill="white"/>
<path d="M94.9352 210.473C94.9352 224.732 95.277 241.937 89.1774 255.164C83.0244 268.509 74.0998 280.275 62.4655 289.372C55.7994 294.584 48.3038 299.047 39.9712 301.037C31.6385 303.027 22.3653 302.319 15.1463 297.843C7.92717 293.367 3.27192 284.775 4.90707 276.654C6.74661 267.522 15.946 260.999 25.4762 259.509C35.0063 258.017 44.724 260.65 53.6435 264.21C70.9406 271.113 84.9835 282.501 101.234 291.05C122.224 302.093 141.948 320.791 167.017 320.87C180.325 320.912 192.521 318.5 203.188 310.087C216.073 299.927 224.287 283.149 220.579 266.974" stroke="#801414" stroke-width="4" stroke-miterlimit="10"/>
</svg>
