<svg width="172" height="290" viewBox="0 0 172 290" fill="none" xmlns="http://www.w3.org/2000/svg">
<path d="M154.812 169.188C150.363 171.12 144.97 172.396 138.485 172.396C122.907 172.396 113.633 165.043 108.599 158.875C105.708 155.337 103.457 151.299 101.908 146.878C100.53 142.948 99.8018 138.936 99.8018 135.274C99.8018 125.501 102.605 115.61 107.91 106.67C110.053 103.056 112.276 99.2509 114.478 95.3537C100.425 68.0678 88.4091 40.2003 84.4428 17.6193C77.5748 56.7289 46.5579 111.696 22.6322 152.027C12.2318 169.559 5.16992 190.546 5.16992 213.448C5.16992 240.927 26.8771 289.026 84.4428 289.026C142.008 289.026 163.716 240.927 163.716 213.448C163.715 197.609 160.337 182.685 154.812 169.188ZM31.0939 244.377C21.498 229.389 17.321 208.353 22.6966 191.183C23.4428 206.422 27.583 221.469 35.0865 234.737C43.3161 249.093 56.6245 260.148 71.4297 267.52C75.6622 269.645 79.9748 271.389 84.4426 273.062C63.2861 273.819 42.6205 262.021 31.0939 244.377Z" fill="#C12732" fill-opacity="0.8"/>
<path d="M63.4587 64.5649C60.9981 70.1633 58.2756 76.0063 55.2928 82.0889C49.934 93.022 44.1047 103.998 38.3116 114.463C36.7832 114.644 35.1842 114.74 33.5145 114.74C9.17727 114.74 0 94.4057 0 82.7885C0 73.1064 2.98621 64.234 7.3835 56.8229C17.4982 39.771 30.6111 16.5332 33.5145 0C36.4179 16.5332 49.5307 39.771 59.6454 56.8229C61.0877 59.2543 62.3782 61.8424 63.4587 64.5649Z" fill="#C12732" fill-opacity="0.8"/>
<path d="M172 135.274C172 146.891 162.822 167.226 138.486 167.226C114.149 167.226 104.972 146.891 104.972 135.274C104.972 125.592 107.958 116.719 112.355 109.307C122.47 92.2563 135.582 69.0182 138.486 52.484C141.389 69.0182 154.502 92.2563 164.617 109.307C169.014 116.719 172 125.592 172 135.274Z" fill="#C12732" fill-opacity="0.8"/>
</svg>
