<svg width="250" height="231" viewBox="0 0 250 231" fill="none" xmlns="http://www.w3.org/2000/svg">
<path d="M201.556 12.1753C206.048 12.1602 210.41 13.6821 213.918 16.4884L214.328 16.8234L240.668 43.9919L240.107 43.4643C248.817 50.9683 251.229 62.8273 247.485 72.7935C240.425 93.1448 222.444 132.499 186.942 167.942C151.382 203.552 111.617 220.771 91.9444 228.451L91.7434 228.518L91.5508 228.585C86.625 230.211 81.3624 230.535 76.2745 229.525C71.1865 228.516 66.4463 226.207 62.5146 222.823L62.2634 222.614L36.0999 196.442C29.1487 189.491 29.1487 177.314 36.0999 170.371L70.4123 136.016C77.3803 129.048 89.5575 129.048 96.5255 136.016L113.142 152.632C119.088 149.793 133.727 142.432 147.647 129.166C161.365 116.067 168.375 100.942 170.912 95.0878L154.162 78.3378C146.817 70.9929 146.399 58.3717 154.866 51.6215L154.104 52.3334L188.793 16.8234L189.187 16.4884C192.696 13.6803 197.062 12.1582 201.556 12.1753ZM201.54 28.875C200.937 28.875 200.348 29.0983 199.773 29.545L165.711 64.4185L165.301 64.7535C165.402 64.6698 164.983 65.4737 166.005 66.4955L190.769 91.2687L188.86 96.3272C188.86 96.3272 179.405 122.022 159.204 141.293C139.339 160.237 114.842 170.588 114.842 170.588L109.624 172.816L84.6833 147.867C83.2679 146.46 83.6699 146.46 82.2545 147.867L47.9422 182.221C46.5184 183.645 46.5184 183.176 47.9422 184.608L73.4608 210.127C77.3468 213.427 81.3584 214.289 86.1908 212.689C105.127 205.286 142.186 189.072 175.1 156.108C208.248 123.002 225.434 85.3895 231.732 67.1655L231.765 67.065L231.815 66.9477C233.08 63.5977 232.15 58.7319 229.177 56.1691L228.901 55.9179L203.324 29.545C202.82 29.1292 202.192 28.8934 201.54 28.875Z" fill="#81522E"/>
<path d="M108.875 0V16.75C58.0806 16.75 16.75 58.0806 16.75 108.875H0C0 48.843 48.843 0 108.875 0ZM108.875 33.5V50.25C76.5559 50.25 50.25 76.5475 50.25 108.875H33.5C33.5 67.3183 67.3099 33.5 108.875 33.5ZM108.875 67V83.75C95.0227 83.75 83.75 95.0227 83.75 108.875H67C67 85.7851 85.7851 67 108.875 67Z" fill="#B17F59"/>
</svg>
