<svg width="225" height="302" viewBox="0 0 225 302" fill="none" xmlns="http://www.w3.org/2000/svg">
<path d="M207.262 150.411C203.348 163.232 198.496 181.256 195.496 183.763C191.23 187.302 160.878 209.357 159.425 210.389C160.034 209.709 167.253 201.6 173.16 194.498C173.183 194.475 173.183 194.475 173.207 194.451C174.637 193.138 193.082 176.193 193.2 175.161C193.317 174.059 197.184 149.824 198.895 142.418C200.583 135.035 206.887 135.269 207.262 136.488C207.637 137.684 207.262 150.411 207.262 150.411Z" fill="#E0BD96"/>
<path d="M160.582 207.362C177.447 193.257 194.289 182.053 194.913 180.784C195.537 179.515 208.469 135.022 214.702 131.103C221.273 126.971 224.924 129.342 224.524 133.285C224.123 137.227 209.413 191.253 209.413 191.253L157.569 220.156L156.964 212.907L160.582 207.362Z" fill="#E8C8A1"/>
<path d="M173.159 194.498C167.253 201.6 160.034 209.709 159.424 210.389C160.877 209.358 191.23 187.302 195.495 183.763C198.495 181.255 203.347 163.231 207.261 150.411C209.019 144.622 210.589 139.911 211.738 138.176C215.371 132.598 221.933 133.09 222.402 134.777C222.894 136.488 215.628 185.708 213.917 191.028C212.229 196.372 170.275 245.826 168.096 250.186C165.916 254.569 168.096 299.406 168.096 299.406L122.673 301.117C122.673 301.117 123.329 266.522 122.673 258.436C122.04 250.35 116.204 226.443 128.181 211.232C140.134 196.044 175.057 172.442 177.963 173.098C180.869 173.731 184.338 179.872 179.018 187.161C177.588 189.106 175.502 191.708 173.205 194.45C173.183 194.474 173.183 194.474 173.159 194.498Z" fill="#EED7BA"/>
<path d="M168.246 178.14L171.562 181.399L178.806 177.128L171.562 183.126L167.436 178.659L168.246 178.14Z" fill="#E8C8A1"/>
<path d="M220.614 135.532L219.887 142.561L221.589 143.046L221.496 143.769L218.978 143.106L220.614 135.532Z" fill="#E8C8A1"/>
<path d="M17.292 150.411C21.206 163.232 26.058 181.256 29.058 183.763C33.324 187.302 63.676 209.357 65.129 210.389C64.52 209.709 57.301 201.6 51.394 194.498C51.371 194.475 51.371 194.475 51.347 194.451C49.917 193.138 31.472 176.193 31.354 175.161C31.237 174.059 27.369 149.824 25.658 142.418C23.97 135.035 17.666 135.269 17.291 136.488C16.917 137.684 17.292 150.411 17.292 150.411Z" fill="#E0BD96"/>
<path d="M63.9718 207.362C47.1068 193.257 30.2648 182.053 29.6408 180.784C29.0168 179.515 16.0848 135.022 9.85175 131.103C3.28075 126.971 -0.37024 129.342 0.0297599 133.285C0.43076 137.227 15.1408 191.253 15.1408 191.253L66.9847 220.156L67.5898 212.907L63.9718 207.362Z" fill="#E8C8A1"/>
<path d="M51.3948 194.498C57.3008 201.6 64.5198 209.709 65.1298 210.389C63.6768 209.358 33.3238 187.302 29.0588 183.763C26.0588 181.255 21.2068 163.231 17.2928 150.411C15.5348 144.622 13.9648 139.911 12.8158 138.176C9.18278 132.598 2.62077 133.09 2.15177 134.777C1.65977 136.488 8.92577 185.708 10.6368 191.028C12.3248 196.372 54.2788 245.826 56.4578 250.186C58.6378 254.569 56.4578 299.406 56.4578 299.406L101.881 301.117C101.881 301.117 101.225 266.522 101.881 258.436C102.514 250.35 108.35 226.443 96.3728 211.232C84.4198 196.044 49.4968 172.442 46.5908 173.098C43.6848 173.731 40.2158 179.872 45.5358 187.161C46.9658 189.106 49.0518 191.708 51.3488 194.45C51.3708 194.474 51.3708 194.474 51.3948 194.498Z" fill="#EED7BA"/>
<path d="M56.3076 178.14L52.9916 181.399L45.7476 177.128L52.9916 183.126L57.1176 178.659L56.3076 178.14Z" fill="#E8C8A1"/>
<path d="M3.93983 135.532L4.66684 142.561L2.96484 143.046L3.05785 143.769L5.57584 143.106L3.93983 135.532Z" fill="#E8C8A1"/>
<path d="M102.161 255.888H57.243C57.93 269.103 56.458 299.407 56.458 299.407L101.881 301.118C101.881 301.118 101.225 266.523 101.881 258.437C101.937 257.71 102.037 256.852 102.161 255.888Z" fill="#E8C8A1"/>
<path d="M122.393 255.888C122.517 256.852 122.617 257.711 122.674 258.437C123.33 266.523 122.674 301.118 122.674 301.118L168.097 299.407C168.097 299.407 166.624 269.104 167.311 255.888H122.393Z" fill="#E8C8A1"/>
<path d="M112.667 107.78L112.157 107.49L30.1865 155.12V155.29L111.887 202.47L112.397 202.76L194.367 155.12V154.95L112.667 107.78Z" fill="#DCE8EF"/>
<path d="M80.755 105.866C88.652 101.307 95.05 105.001 95.05 114.119C95.05 123.237 88.652 134.319 80.755 138.878C72.858 143.437 66.46 139.743 66.46 130.625C66.46 121.507 72.858 110.425 80.755 105.866ZM92.988 115.31C92.988 107.507 87.513 104.346 80.755 108.247C73.997 112.148 68.522 121.632 68.522 129.435C68.522 137.238 73.997 140.399 80.755 136.498C87.513 132.596 92.988 123.113 92.988 115.31Z" fill="#E4EFE7"/>
<path d="M80.755 108.247C87.513 104.345 92.988 107.507 92.988 115.31C92.988 123.113 87.513 132.596 80.755 136.498C73.997 140.399 68.522 137.238 68.522 129.435C68.522 121.632 73.998 112.149 80.755 108.247ZM92.118 115.812C92.118 108.564 87.033 105.628 80.756 109.252C74.479 112.876 69.394 121.684 69.394 128.932C69.394 136.18 74.479 139.116 80.756 135.492C87.032 131.869 92.118 123.06 92.118 115.812Z" fill="#E0AA34"/>
<path d="M80.7551 109.253C87.0321 105.629 92.1171 108.565 92.1171 115.813C92.1171 123.061 87.0321 131.869 80.7551 135.493C74.4781 139.117 69.3931 136.181 69.3931 128.933C69.3931 121.685 74.4781 112.876 80.7551 109.253ZM90.5621 116.71C90.5621 110.458 86.1701 107.922 80.7551 111.048C75.3401 114.174 70.9481 121.782 70.9481 128.034C70.9481 134.286 75.3401 136.822 80.7551 133.696C86.1701 130.57 90.5621 122.963 90.5621 116.71Z" fill="#F4D586"/>
<path d="M80.7547 111.048C86.1697 107.922 90.5618 110.458 90.5618 116.71C90.5618 122.962 86.1697 130.57 80.7547 133.696C75.3397 136.822 70.9478 134.286 70.9478 128.034C70.9478 121.782 75.3397 114.174 80.7547 111.048Z" fill="#E4EFE7"/>
<path d="M82.4508 116.014C83.6448 115.846 84.2128 116.695 84.2128 118.359V118.611L82.7278 119.468C82.7278 118.543 82.5238 117.989 82.1168 117.82L81.4768 121.266C83.3408 120.526 84.3158 120.804 84.3158 122.586V122.72C84.3158 124.754 83.0488 126.73 80.8358 128.007C80.6028 128.142 80.3848 128.251 80.1658 128.36L79.7728 130.503L78.5648 131.201L79.0308 128.696C77.8228 128.822 77.1968 128.007 77.1968 126.443V126.342L78.6818 125.485C78.6818 126.292 78.9148 126.779 79.3518 126.914L80.0218 123.282C78.0998 124.022 77.2988 123.56 77.2988 121.98V121.845C77.2988 119.862 78.6818 117.869 80.7498 116.676C80.9388 116.567 81.1278 116.474 81.3028 116.39L81.6958 114.263L82.9038 113.565L82.4508 116.014ZM80.3108 121.738L80.9948 118.015C80.9218 118.04 80.8348 118.09 80.7618 118.132L80.7038 118.166C79.6408 118.78 78.8108 119.847 78.8108 120.873V120.957C78.8118 121.813 79.1898 122.133 80.3108 121.738ZM82.7858 123.688V123.604C82.7858 122.646 82.2908 122.427 81.1838 122.814L80.4558 126.764C80.5718 126.714 80.6888 126.646 80.8048 126.579L80.8628 126.545C81.9998 125.89 82.7858 124.797 82.7858 123.688Z" fill="#E0AA34"/>
<path d="M86.9572 102.666C84.3582 101.156 80.7582 101.369 76.7852 103.663C68.8892 108.222 62.5112 119.268 62.5372 128.342C62.5502 132.853 64.1412 136.026 66.7082 137.518L70.6322 139.798C68.0652 138.306 66.4742 135.134 66.4612 130.622C66.4352 121.548 72.8132 110.502 80.7092 105.943C84.6832 103.649 88.2822 103.436 90.8812 104.946L86.9572 102.666Z" fill="#E0AA34"/>
<path d="M62.6668 126.109C62.6358 126.402 62.6088 126.694 62.5908 126.985L66.5148 129.265C66.5338 128.975 66.5608 128.683 66.5908 128.389L62.6668 126.109Z" fill="#E4EFE7"/>
<path d="M63.016 123.848C62.961 124.123 62.9 124.4 62.854 124.674L66.778 126.955C66.824 126.681 66.884 126.404 66.94 126.129L63.016 123.848Z" fill="#E4EFE7"/>
<path d="M65.0121 117.619C64.9031 117.865 64.8071 118.113 64.7051 118.36L68.6291 120.64C68.7311 120.393 68.8281 120.145 68.9361 119.899L65.0121 117.619Z" fill="#E4EFE7"/>
<path d="M63.5382 121.688C63.4622 121.954 63.3932 122.219 63.3262 122.485L67.2502 124.766C67.3182 124.5 67.3862 124.235 67.4622 123.969L63.5382 121.688Z" fill="#E4EFE7"/>
<path d="M64.2057 119.614C64.1117 119.87 64.0338 120.127 63.9478 120.384L67.8717 122.664C67.9577 122.407 68.0367 122.15 68.1297 121.894L64.2057 119.614Z" fill="#E4EFE7"/>
<path d="M62.5439 128.5C62.5479 128.825 62.5689 129.135 62.5889 129.446L66.5129 131.727C66.4929 131.416 66.4719 131.106 66.4679 130.781L62.5439 128.5Z" fill="#E4EFE7"/>
<path d="M84.3939 101.79C83.8499 101.711 83.2819 101.688 82.6929 101.721L86.6169 104.001C87.2059 103.968 87.7749 103.991 88.3179 104.07L84.3939 101.79Z" fill="#E4EFE7"/>
<path d="M62.7788 131.099C62.8418 131.464 62.9208 131.813 63.0088 132.153L66.9328 134.434C66.8448 134.094 66.7658 133.745 66.7028 133.38L62.7788 131.099Z" fill="#E4EFE7"/>
<path d="M68.4508 137.779C68.1358 137.346 67.8438 136.884 67.5988 136.364L63.6748 134.084C63.9198 134.605 64.2118 135.066 64.5268 135.499L68.4508 137.779Z" fill="#E4EFE7"/>
<path d="M72.3091 107.082C72.1121 107.271 71.9201 107.468 71.7271 107.664L75.651 109.944C75.844 109.748 76.036 109.551 76.233 109.362L72.3091 107.082Z" fill="#E4EFE7"/>
<path d="M78.0231 103.014C77.7451 103.147 77.4651 103.291 77.1831 103.445L81.1071 105.725C81.3891 105.571 81.6701 105.427 81.9471 105.294L78.0231 103.014Z" fill="#E4EFE7"/>
<path d="M75.886 104.235C75.639 104.396 75.391 104.553 75.147 104.725L79.071 107.005C79.315 106.832 79.563 106.675 79.81 106.515L75.886 104.235Z" fill="#E4EFE7"/>
<path d="M80.6098 102.054C80.2678 102.143 79.9218 102.246 79.5698 102.37L83.4938 104.65C83.8458 104.527 84.1918 104.423 84.5338 104.334L80.6098 102.054Z" fill="#E4EFE7"/>
<path d="M73.9901 105.596C73.7731 105.771 73.5641 105.961 73.3511 106.144L77.2751 108.425C77.4881 108.241 77.6981 108.051 77.9151 107.877L73.9901 105.596Z" fill="#E4EFE7"/>
<path d="M65.94 115.696C65.818 115.932 65.7 116.17 65.583 116.408L69.507 118.688C69.624 118.449 69.742 118.212 69.864 117.976L65.94 115.696Z" fill="#E4EFE7"/>
<path d="M66.9802 113.837C66.8442 114.065 66.7062 114.291 66.5752 114.521L70.4992 116.801C70.6302 116.57 70.7682 116.344 70.9042 116.117L66.9802 113.837Z" fill="#E4EFE7"/>
<path d="M68.1317 112.044C67.9817 112.264 67.8247 112.477 67.6787 112.701L71.6027 114.981C71.7487 114.758 71.9057 114.544 72.0557 114.324L68.1317 112.044Z" fill="#E4EFE7"/>
<path d="M70.787 108.661C70.607 108.862 70.426 109.062 70.25 109.269L74.174 111.549C74.35 111.343 74.53 111.142 74.711 110.941L70.787 108.661Z" fill="#E4EFE7"/>
<path d="M69.3988 110.317C69.2338 110.528 69.0648 110.734 68.9038 110.949L72.8278 113.229C72.9888 113.014 73.1578 112.807 73.3228 112.597L69.3988 110.317Z" fill="#E4EFE7"/>
<path d="M178.957 139.148L178.945 143.468C178.937 146.293 177.08 149.114 173.37 151.27C165.902 155.61 153.76 155.61 146.243 151.27C142.46 149.086 140.571 146.22 140.58 143.359L140.592 139.039C140.584 141.9 142.473 144.766 146.256 146.95C153.773 151.29 165.915 151.29 173.383 146.95C177.092 144.794 178.949 141.973 178.957 139.148Z" fill="#E0AA34"/>
<path d="M171.299 130.778C179.763 134.38 181.463 141.178 175.097 145.966C168.731 150.755 156.715 151.716 148.25 148.114C139.785 144.512 138.086 137.714 144.452 132.926C150.819 128.138 162.834 127.176 171.299 130.778ZM172.886 145.026C178.334 140.928 176.879 135.111 169.636 132.029C162.393 128.947 152.11 129.77 146.662 133.868C141.214 137.966 142.669 143.783 149.912 146.865C157.155 149.946 167.438 149.123 172.886 145.026Z" fill="#E4EFE7"/>
<path d="M169.636 132.028C176.879 135.11 178.334 140.928 172.886 145.025C167.438 149.123 157.155 149.946 149.912 146.864C142.669 143.782 141.214 137.964 146.662 133.867C152.11 129.769 162.393 128.946 169.636 132.028ZM171.953 144.628C177.013 140.822 175.662 135.419 168.934 132.556C162.206 129.693 152.655 130.458 147.595 134.264C142.535 138.07 143.886 143.474 150.614 146.336C157.342 149.199 166.893 148.435 171.953 144.628Z" fill="#E0AA34"/>
<path d="M168.935 132.556C175.663 135.419 177.014 140.822 171.954 144.628C166.894 148.434 157.343 149.199 150.615 146.336C143.887 143.473 142.536 138.07 147.596 134.264C152.656 130.458 162.207 129.693 168.935 132.556ZM170.286 143.919C174.651 140.635 173.484 135.969 167.681 133.499C161.877 131.029 153.628 131.69 149.263 134.973C144.898 138.257 146.065 142.923 151.868 145.393C157.672 147.863 165.921 147.203 170.286 143.919Z" fill="#F4D586"/>
<path d="M167.681 133.499C173.485 135.969 174.652 140.636 170.286 143.919C165.921 147.202 157.671 147.863 151.868 145.393C146.064 142.923 144.897 138.256 149.263 134.973C153.628 131.69 161.877 131.029 167.681 133.499Z" fill="#E4EFE7"/>
<path d="M165.348 137.395C166.264 138.213 166.051 139.09 164.889 139.964L164.713 140.096L163.121 139.419C163.767 138.933 164.018 138.487 163.862 138.09L161.027 139.413C162.79 140.44 163.248 141.326 162.004 142.262L161.91 142.333C160.49 143.401 158.263 143.477 155.892 142.468C155.642 142.362 155.42 142.253 155.198 142.145L153.438 142.972L152.143 142.421L154.203 141.459C153.307 140.608 153.458 139.704 154.549 138.883L154.619 138.83L156.211 139.507C155.648 139.931 155.463 140.364 155.661 140.766L158.644 139.367C156.842 138.296 156.629 137.446 157.733 136.616L157.827 136.545C159.212 135.503 161.528 135.507 163.744 136.45C163.947 136.536 164.138 136.631 164.313 136.72L166.061 135.902L167.356 136.453L165.348 137.395ZM159.92 138.776L162.977 137.34C162.911 137.298 162.817 137.258 162.739 137.225L162.676 137.198C161.537 136.713 160.237 136.644 159.521 137.182L159.462 137.226C158.865 137.677 158.895 138.132 159.92 138.776ZM160.214 141.679L160.273 141.635C160.942 141.132 160.764 140.641 159.753 140.004L156.508 141.526C156.621 141.588 156.746 141.641 156.871 141.694L156.933 141.721C158.151 142.238 159.439 142.262 160.214 141.679Z" fill="#E0AA34"/>
<path d="M152.035 149.236C151.781 149.171 151.528 149.105 151.278 149.033L151.266 153.353C151.516 153.425 151.769 153.491 152.022 153.556L152.035 149.236Z" fill="#E4EFE7"/>
<path d="M156.081 149.989C155.827 149.96 155.577 149.917 155.324 149.882L155.312 154.202C155.565 154.237 155.815 154.28 156.069 154.309L156.081 149.989Z" fill="#E4EFE7"/>
<path d="M147.222 151.781C147.471 151.907 147.721 152.032 147.978 152.149L147.99 147.829C147.732 147.712 147.483 147.587 147.234 147.461L147.222 151.781Z" fill="#E4EFE7"/>
<path d="M158.105 150.157C157.852 150.144 157.601 150.119 157.348 150.1L157.336 154.42C157.588 154.439 157.84 154.464 158.093 154.477L158.105 150.157Z" fill="#E4EFE7"/>
<path d="M178.371 141.853C178.17 142.316 177.916 142.772 177.61 143.219L177.598 147.539C177.904 147.092 178.158 146.635 178.359 146.173L178.371 141.853Z" fill="#E4EFE7"/>
<path d="M173.539 151.167C173.802 151.01 174.054 150.85 174.297 150.687L174.309 146.367C174.065 146.53 173.813 146.691 173.55 146.847L173.539 151.167Z" fill="#E4EFE7"/>
<path d="M150.012 148.627C149.76 148.54 149.502 148.461 149.256 148.367L149.244 152.687C149.49 152.781 149.748 152.86 150 152.947L150.012 148.627Z" fill="#E4EFE7"/>
<path d="M175.58 145.416L175.568 149.736C175.835 149.512 176.091 149.284 176.327 149.052L176.339 144.732C176.103 144.965 175.847 145.192 175.58 145.416Z" fill="#E4EFE7"/>
<path d="M160.117 154.517L160.129 150.197C159.876 150.199 159.625 150.196 159.372 150.192L159.36 154.512C159.612 154.516 159.864 154.519 160.117 154.517Z" fill="#E4EFE7"/>
<path d="M154.058 149.683C153.804 149.637 153.553 149.583 153.301 149.53L153.289 153.85C153.541 153.903 153.791 153.957 154.046 154.003L154.058 149.683Z" fill="#E4EFE7"/>
<path d="M141.165 146.103C141.364 146.562 141.616 147.015 141.918 147.46L141.93 143.14C141.628 142.696 141.376 142.243 141.177 141.783L141.165 146.103Z" fill="#E4EFE7"/>
<path d="M143.936 149.661L143.948 145.341C143.681 145.115 143.428 144.886 143.193 144.652L143.181 148.972C143.416 149.205 143.669 149.435 143.936 149.661Z" fill="#E4EFE7"/>
<path d="M145.969 146.776C145.707 146.619 145.456 146.458 145.213 146.294L145.201 150.614C145.443 150.778 145.695 150.939 145.957 151.096L145.969 146.776Z" fill="#E4EFE7"/>
<path d="M172.282 147.527C172.033 147.651 171.781 147.77 171.524 147.885L171.512 152.205C171.769 152.09 172.021 151.971 172.27 151.847L172.282 147.527Z" fill="#E4EFE7"/>
<path d="M166.204 149.563C165.951 149.614 165.702 149.672 165.446 149.717L165.434 154.037C165.689 153.992 165.939 153.935 166.192 153.883L166.204 149.563Z" fill="#E4EFE7"/>
<path d="M170.255 148.417C170.008 148.51 169.75 148.591 169.497 148.677L169.485 152.997C169.738 152.911 169.995 152.83 170.243 152.737L170.255 148.417Z" fill="#E4EFE7"/>
<path d="M164.178 149.905C163.925 149.939 163.675 149.98 163.421 150.008L163.409 154.328C163.663 154.3 163.914 154.259 164.167 154.225L164.178 149.905Z" fill="#E4EFE7"/>
<path d="M162.154 150.114C161.902 150.132 161.65 150.15 161.397 150.162L161.385 154.482C161.638 154.47 161.89 154.452 162.142 154.434L162.154 150.114Z" fill="#E4EFE7"/>
<path d="M168.229 149.074C167.978 149.145 167.726 149.214 167.471 149.278L167.459 153.598C167.714 153.534 167.966 153.465 168.217 153.394L168.229 149.074Z" fill="#E4EFE7"/>
<path d="M131.466 129.592L131.454 133.912C131.446 136.737 129.589 139.558 125.879 141.714C118.411 146.054 106.269 146.054 98.7519 141.714C94.9689 139.53 93.0799 136.664 93.0879 133.803L93.0999 129.483C93.0919 132.345 94.9809 135.21 98.7639 137.394C106.281 141.734 118.423 141.734 125.891 137.394C129.601 135.237 131.458 132.417 131.466 129.592Z" fill="#E0AA34"/>
<path d="M123.808 121.221C132.272 124.823 133.972 131.621 127.606 136.409C121.24 141.198 109.224 142.159 100.759 138.557C92.2947 134.955 90.5947 128.157 96.9607 123.369C103.327 118.581 115.343 117.619 123.808 121.221ZM125.395 135.469C130.843 131.371 129.388 125.554 122.145 122.472C114.902 119.39 104.619 120.213 99.1707 124.311C93.7227 128.409 95.1777 134.226 102.421 137.308C109.664 140.389 119.947 139.567 125.395 135.469Z" fill="#E4EFE7"/>
<path d="M122.145 122.471C129.388 125.553 130.843 131.371 125.395 135.468C119.947 139.566 109.664 140.389 102.421 137.307C95.1778 134.225 93.7228 128.407 99.1708 124.31C104.619 120.212 114.902 119.389 122.145 122.471ZM124.462 135.072C129.522 131.266 128.171 125.862 121.443 123C114.715 120.137 105.164 120.902 100.104 124.708C95.0438 128.514 96.3948 133.918 103.123 136.78C109.851 139.642 119.402 138.878 124.462 135.072Z" fill="#E0AA34"/>
<path d="M121.443 122.999C128.171 125.862 129.522 131.265 124.462 135.071C119.402 138.877 109.851 139.642 103.123 136.779C96.3946 133.916 95.0436 128.513 100.104 124.707C105.165 120.901 114.715 120.136 121.443 122.999ZM122.795 134.362C127.16 131.079 125.993 126.412 120.19 123.942C114.386 121.472 106.137 122.133 101.772 125.416C97.4066 128.699 98.5736 133.366 104.378 135.836C110.181 138.306 118.43 137.646 122.795 134.362Z" fill="#F4D586"/>
<path d="M120.19 123.942C125.994 126.412 127.161 131.079 122.795 134.362C118.43 137.645 110.18 138.306 104.377 135.836C98.5728 133.366 97.4058 128.699 101.771 125.416C106.136 122.133 114.386 121.473 120.19 123.942Z" fill="#E4EFE7"/>
<path d="M117.857 127.838C118.773 128.656 118.56 129.533 117.398 130.407L117.222 130.539L115.63 129.862C116.276 129.376 116.526 128.93 116.372 128.533L113.537 129.856C115.3 130.883 115.758 131.769 114.514 132.705L114.42 132.776C113 133.844 110.774 133.92 108.402 132.91C108.152 132.804 107.93 132.695 107.707 132.587L105.948 133.414L104.653 132.863L106.714 131.901C105.818 131.05 105.969 130.146 107.06 129.325L107.13 129.272L108.722 129.949C108.159 130.373 107.974 130.805 108.172 131.208L111.155 129.81C109.353 128.739 109.14 127.889 110.244 127.059L110.338 126.988C111.723 125.946 114.039 125.95 116.255 126.893C116.458 126.979 116.649 127.074 116.825 127.163L118.573 126.345L119.868 126.896L117.857 127.838ZM112.429 129.219L115.486 127.783C115.42 127.741 115.326 127.701 115.248 127.668L115.185 127.641C114.046 127.156 112.746 127.087 112.03 127.625L111.971 127.669C111.374 128.12 111.404 128.575 112.429 129.219ZM112.723 132.122L112.782 132.078C113.451 131.575 113.273 131.084 112.262 130.447L109.017 131.969C109.13 132.031 109.255 132.084 109.38 132.137L109.443 132.164C110.66 132.682 111.948 132.705 112.723 132.122Z" fill="#E0AA34"/>
<path d="M104.544 139.679C104.29 139.614 104.037 139.548 103.787 139.476L103.775 143.796C104.025 143.868 104.278 143.934 104.532 143.999L104.544 139.679Z" fill="#E4EFE7"/>
<path d="M108.59 140.432C108.336 140.403 108.086 140.36 107.833 140.325L107.821 144.645C108.073 144.68 108.324 144.723 108.578 144.752L108.59 140.432Z" fill="#E4EFE7"/>
<path d="M99.731 142.225C99.98 142.351 100.229 142.476 100.487 142.593L100.499 138.273C100.241 138.156 99.992 138.031 99.743 137.905L99.731 142.225Z" fill="#E4EFE7"/>
<path d="M110.614 140.6C110.361 140.587 110.109 140.562 109.857 140.543L109.845 144.863C110.098 144.882 110.348 144.907 110.602 144.92L110.614 140.6Z" fill="#E4EFE7"/>
<path d="M130.88 132.296C130.679 132.759 130.425 133.215 130.119 133.662L130.107 137.982C130.413 137.535 130.667 137.079 130.868 136.616L130.88 132.296Z" fill="#E4EFE7"/>
<path d="M126.048 141.61C126.311 141.453 126.563 141.293 126.806 141.13L126.818 136.81C126.574 136.973 126.322 137.134 126.06 137.29L126.048 141.61Z" fill="#E4EFE7"/>
<path d="M102.521 139.07C102.269 138.983 102.011 138.904 101.764 138.81L101.752 143.13C101.998 143.224 102.256 143.303 102.508 143.39L102.521 139.07Z" fill="#E4EFE7"/>
<path d="M128.088 135.86L128.076 140.18C128.343 139.956 128.599 139.728 128.835 139.496L128.847 135.176C128.612 135.408 128.356 135.635 128.088 135.86Z" fill="#E4EFE7"/>
<path d="M112.626 144.96L112.638 140.64C112.385 140.642 112.133 140.639 111.881 140.635L111.869 144.955C112.121 144.959 112.373 144.962 112.626 144.96Z" fill="#E4EFE7"/>
<path d="M106.566 140.127C106.312 140.081 106.061 140.026 105.809 139.974L105.797 144.294C106.049 144.347 106.299 144.401 106.554 144.447L106.566 140.127Z" fill="#E4EFE7"/>
<path d="M93.6738 136.546C93.8738 137.005 94.1248 137.458 94.4268 137.903L94.4388 133.583C94.1368 133.138 93.8848 132.685 93.6858 132.226L93.6738 136.546Z" fill="#E4EFE7"/>
<path d="M96.4449 140.104L96.4569 135.784C96.1899 135.558 95.937 135.329 95.702 135.095L95.6899 139.415C95.9249 139.649 96.1779 139.878 96.4449 140.104Z" fill="#E4EFE7"/>
<path d="M98.478 137.22C98.216 137.062 97.965 136.902 97.722 136.738L97.71 141.058C97.952 141.222 98.204 141.383 98.466 141.54L98.478 137.22Z" fill="#E4EFE7"/>
<path d="M124.791 137.971C124.542 138.095 124.29 138.214 124.033 138.329L124.021 142.649C124.278 142.534 124.53 142.415 124.779 142.291L124.791 137.971Z" fill="#E4EFE7"/>
<path d="M118.712 140.006C118.46 140.057 118.21 140.114 117.955 140.16L117.943 144.48C118.198 144.435 118.448 144.378 118.701 144.326L118.712 140.006Z" fill="#E4EFE7"/>
<path d="M122.764 138.86C122.516 138.953 122.259 139.034 122.006 139.12L121.994 143.44C122.247 143.354 122.504 143.273 122.752 143.18L122.764 138.86Z" fill="#E4EFE7"/>
<path d="M116.687 140.349C116.434 140.383 116.184 140.424 115.93 140.452L115.918 144.772C116.172 144.744 116.423 144.703 116.675 144.669L116.687 140.349Z" fill="#E4EFE7"/>
<path d="M114.662 140.557C114.41 140.575 114.158 140.593 113.905 140.605L113.893 144.925C114.146 144.913 114.398 144.895 114.65 144.877L114.662 140.557Z" fill="#E4EFE7"/>
<path d="M120.738 139.517C120.487 139.588 120.235 139.657 119.98 139.721L119.968 144.041C120.223 143.977 120.475 143.908 120.726 143.837L120.738 139.517Z" fill="#E4EFE7"/>
<path d="M147.881 126.185L147.869 130.505C147.861 133.33 146.004 136.151 142.294 138.307C134.826 142.647 122.684 142.647 115.167 138.307C111.384 136.123 109.495 133.257 109.503 130.396L109.515 126.076C109.507 128.937 111.396 131.803 115.179 133.987C122.696 138.327 134.838 138.327 142.306 133.987C146.016 131.83 147.873 129.01 147.881 126.185Z" fill="#E0AA34"/>
<path d="M140.223 117.814C148.687 121.416 150.387 128.214 144.021 133.002C137.655 137.791 125.639 138.752 117.174 135.15C108.71 131.548 107.01 124.75 113.376 119.962C119.742 115.174 131.758 114.213 140.223 117.814ZM141.81 132.062C147.258 127.964 145.803 122.147 138.56 119.065C131.317 115.983 121.034 116.806 115.586 120.904C110.138 125.002 111.593 130.819 118.836 133.901C126.079 136.983 136.362 136.16 141.81 132.062Z" fill="#E4EFE7"/>
<path d="M138.56 119.065C145.803 122.147 147.258 127.965 141.81 132.062C136.362 136.16 126.079 136.983 118.836 133.901C111.593 130.819 110.138 125.001 115.586 120.904C121.034 116.805 131.317 115.983 138.56 119.065ZM140.877 131.665C145.937 127.859 144.586 122.455 137.858 119.593C131.13 116.73 121.579 117.495 116.519 121.301C111.459 125.107 112.81 130.511 119.538 133.373C126.266 136.236 135.817 135.471 140.877 131.665Z" fill="#E0AA34"/>
<path d="M137.858 119.593C144.586 122.456 145.937 127.859 140.877 131.665C135.817 135.471 126.266 136.236 119.538 133.373C112.81 130.51 111.459 125.107 116.519 121.301C121.58 117.494 131.13 116.73 137.858 119.593ZM139.21 130.956C143.575 127.672 142.408 123.006 136.605 120.536C130.801 118.066 122.552 118.727 118.187 122.01C113.822 125.293 114.989 129.96 120.792 132.43C126.596 134.899 134.845 134.239 139.21 130.956Z" fill="#F4D586"/>
<path d="M136.605 120.536C142.409 123.006 143.576 127.673 139.21 130.956C134.845 134.239 126.595 134.9 120.792 132.43C114.988 129.96 113.821 125.293 118.187 122.01C122.552 118.726 130.801 118.066 136.605 120.536Z" fill="#E4EFE7"/>
<path d="M134.272 124.431C135.188 125.249 134.975 126.126 133.813 127L133.637 127.132L132.045 126.455C132.691 125.969 132.942 125.523 132.786 125.126L129.951 126.449C131.714 127.476 132.172 128.362 130.928 129.298L130.834 129.369C129.414 130.437 127.188 130.513 124.816 129.504C124.566 129.398 124.344 129.289 124.122 129.181L122.363 130.008L121.068 129.457L123.129 128.495C122.233 127.644 122.384 126.74 123.475 125.919L123.545 125.866L125.137 126.543C124.574 126.967 124.389 127.4 124.587 127.802L127.57 126.403C125.768 125.332 125.555 124.482 126.659 123.652L126.753 123.581C128.138 122.539 130.454 122.543 132.67 123.486C132.873 123.572 133.064 123.667 133.239 123.756L134.987 122.938L136.282 123.489L134.272 124.431ZM128.844 125.812L131.901 124.376C131.835 124.334 131.741 124.294 131.663 124.261L131.6 124.234C130.461 123.749 129.161 123.68 128.445 124.218L128.386 124.262C127.789 124.713 127.819 125.168 128.844 125.812ZM129.138 128.716L129.197 128.672C129.866 128.169 129.688 127.678 128.677 127.041L125.432 128.563C125.545 128.625 125.67 128.678 125.795 128.731L125.858 128.758C127.075 129.275 128.363 129.298 129.138 128.716Z" fill="#E0AA34"/>
<path d="M120.959 136.272C120.705 136.207 120.452 136.141 120.202 136.069L120.19 140.389C120.44 140.461 120.693 140.527 120.947 140.592L120.959 136.272Z" fill="#E4EFE7"/>
<path d="M125.005 137.025C124.751 136.996 124.501 136.953 124.248 136.918L124.236 141.238C124.488 141.273 124.738 141.316 124.993 141.345L125.005 137.025Z" fill="#E4EFE7"/>
<path d="M116.146 138.818C116.395 138.944 116.644 139.069 116.902 139.186L116.914 134.866C116.656 134.749 116.407 134.624 116.158 134.498L116.146 138.818Z" fill="#E4EFE7"/>
<path d="M127.029 137.194C126.776 137.181 126.525 137.156 126.272 137.137L126.26 141.457C126.513 141.476 126.764 141.501 127.017 141.514L127.029 137.194Z" fill="#E4EFE7"/>
<path d="M147.295 128.89C147.093 129.353 146.84 129.809 146.534 130.256L146.522 134.576C146.828 134.129 147.081 133.673 147.283 133.21L147.295 128.89Z" fill="#E4EFE7"/>
<path d="M142.463 138.203C142.726 138.046 142.978 137.886 143.221 137.723L143.233 133.403C142.99 133.566 142.737 133.727 142.475 133.883L142.463 138.203Z" fill="#E4EFE7"/>
<path d="M118.936 135.663C118.684 135.576 118.426 135.497 118.179 135.403L118.167 139.723C118.413 139.817 118.671 139.896 118.923 139.983L118.936 135.663Z" fill="#E4EFE7"/>
<path d="M144.504 132.453L144.492 136.773C144.759 136.549 145.015 136.321 145.251 136.089L145.263 131.769C145.027 132.001 144.771 132.229 144.504 132.453Z" fill="#E4EFE7"/>
<path d="M129.041 141.554L129.053 137.234C128.8 137.236 128.549 137.233 128.296 137.229L128.284 141.549C128.536 141.552 128.788 141.556 129.041 141.554Z" fill="#E4EFE7"/>
<path d="M122.981 136.72C122.727 136.674 122.476 136.62 122.224 136.567L122.212 140.887C122.463 140.94 122.714 140.994 122.969 141.04L122.981 136.72Z" fill="#E4EFE7"/>
<path d="M110.089 133.139C110.289 133.598 110.54 134.051 110.842 134.496L110.854 130.176C110.552 129.732 110.3 129.279 110.101 128.819L110.089 133.139Z" fill="#E4EFE7"/>
<path d="M112.86 136.697L112.872 132.377C112.605 132.151 112.352 131.922 112.117 131.688L112.105 136.008C112.34 136.242 112.593 136.471 112.86 136.697Z" fill="#E4EFE7"/>
<path d="M114.893 133.813C114.631 133.656 114.38 133.495 114.137 133.331L114.125 137.651C114.367 137.815 114.619 137.976 114.881 138.133L114.893 133.813Z" fill="#E4EFE7"/>
<path d="M141.206 134.564C140.957 134.688 140.705 134.807 140.448 134.922L140.436 139.242C140.693 139.127 140.945 139.008 141.194 138.884L141.206 134.564Z" fill="#E4EFE7"/>
<path d="M135.128 136.599C134.875 136.65 134.626 136.708 134.37 136.753L134.358 141.073C134.613 141.028 134.863 140.971 135.116 140.919L135.128 136.599Z" fill="#E4EFE7"/>
<path d="M139.179 135.453C138.931 135.546 138.674 135.627 138.421 135.713L138.409 140.033C138.662 139.947 138.919 139.866 139.167 139.773L139.179 135.453Z" fill="#E4EFE7"/>
<path d="M133.102 136.942C132.849 136.976 132.599 137.017 132.345 137.045L132.333 141.365C132.588 141.337 132.838 141.296 133.09 141.262L133.102 136.942Z" fill="#E4EFE7"/>
<path d="M131.078 137.151C130.826 137.169 130.574 137.187 130.321 137.199L130.309 141.519C130.562 141.507 130.814 141.489 131.066 141.471L131.078 137.151Z" fill="#E4EFE7"/>
<path d="M137.153 136.11C136.902 136.181 136.65 136.25 136.395 136.314L136.383 140.634C136.638 140.57 136.89 140.501 137.141 140.43L137.153 136.11Z" fill="#E4EFE7"/>
<path d="M134.734 118.193L134.722 122.513C134.714 125.338 132.857 128.159 129.147 130.315C121.679 134.655 109.537 134.655 102.02 130.315C98.237 128.131 96.348 125.265 96.356 122.404L96.368 118.084C96.36 120.945 98.249 123.811 102.032 125.995C109.549 130.335 121.691 130.335 129.159 125.995C132.869 123.839 134.726 121.018 134.734 118.193Z" fill="#E0AA34"/>
<path d="M127.076 109.822C135.54 113.424 137.24 120.222 130.874 125.01C124.508 129.799 112.492 130.76 104.027 127.158C95.5628 123.556 93.8628 116.758 100.229 111.97C106.595 107.182 118.611 106.221 127.076 109.822ZM128.663 124.07C134.111 119.972 132.656 114.155 125.413 111.073C118.17 107.991 107.887 108.814 102.439 112.912C96.9908 117.01 98.4458 122.827 105.689 125.909C112.932 128.991 123.215 128.168 128.663 124.07Z" fill="#E4EFE7"/>
<path d="M125.413 111.073C132.656 114.155 134.111 119.973 128.663 124.07C123.215 128.168 112.932 128.991 105.689 125.909C98.4459 122.827 96.9909 117.009 102.439 112.912C107.887 108.813 118.17 107.99 125.413 111.073ZM127.73 123.673C132.79 119.867 131.439 114.463 124.711 111.601C117.983 108.738 108.432 109.503 103.372 113.309C98.3119 117.115 99.6629 122.519 106.391 125.381C113.119 128.244 122.67 127.479 127.73 123.673Z" fill="#E0AA34"/>
<path d="M124.711 111.601C131.439 114.464 132.79 119.867 127.73 123.673C122.67 127.479 113.119 128.244 106.391 125.381C99.6626 122.518 98.3116 117.115 103.372 113.309C108.433 109.502 117.983 108.738 124.711 111.601ZM126.063 122.964C130.428 119.681 129.261 115.014 123.458 112.544C117.654 110.074 109.405 110.735 105.04 114.018C100.675 117.302 101.842 121.968 107.645 124.438C113.449 126.907 121.698 126.247 126.063 122.964Z" fill="#F4D586"/>
<path d="M115.551 125.932C122.815 125.932 128.704 122.601 128.704 118.491C128.704 114.381 122.815 111.05 115.551 111.05C108.287 111.05 102.398 114.381 102.398 118.491C102.398 122.601 108.287 125.932 115.551 125.932Z" fill="#E4EFE7"/>
<path d="M121.125 116.439C122.041 117.257 121.828 118.134 120.666 119.008L120.49 119.14L118.898 118.463C119.544 117.977 119.795 117.531 119.639 117.134L116.805 118.457C118.568 119.484 119.026 120.37 117.782 121.306L117.688 121.377C116.268 122.445 114.042 122.521 111.67 121.511C111.42 121.405 111.198 121.296 110.975 121.188L109.215 122.015L107.92 121.464L109.981 120.502C109.085 119.651 109.236 118.747 110.327 117.926L110.397 117.873L111.989 118.55C111.426 118.974 111.241 119.406 111.439 119.809L114.422 118.411C112.62 117.34 112.407 116.49 113.511 115.66L113.605 115.589C114.99 114.547 117.306 114.551 119.522 115.494C119.725 115.58 119.916 115.675 120.091 115.764L121.839 114.946L123.134 115.497L121.125 116.439ZM115.697 117.82L118.754 116.384C118.688 116.342 118.594 116.302 118.516 116.269L118.453 116.242C117.314 115.757 116.013 115.688 115.297 116.226L115.238 116.27C114.642 116.721 114.672 117.176 115.697 117.82ZM115.991 120.723L116.05 120.679C116.719 120.176 116.541 119.685 115.53 119.048L112.285 120.57C112.398 120.632 112.523 120.685 112.648 120.738L112.71 120.765C113.928 121.283 115.216 121.306 115.991 120.723Z" fill="#E0AA34"/>
<path d="M107.812 128.28C107.558 128.215 107.305 128.149 107.055 128.077L107.043 132.397C107.293 132.469 107.546 132.535 107.8 132.6L107.812 128.28Z" fill="#E4EFE7"/>
<path d="M111.858 129.033C111.604 129.004 111.354 128.961 111.101 128.926L111.089 133.246C111.342 133.281 111.592 133.324 111.846 133.353L111.858 129.033Z" fill="#E4EFE7"/>
<path d="M102.999 130.826C103.248 130.952 103.497 131.077 103.755 131.194L103.767 126.874C103.509 126.757 103.26 126.632 103.011 126.506L102.999 130.826Z" fill="#E4EFE7"/>
<path d="M113.882 129.202C113.629 129.189 113.377 129.164 113.125 129.145L113.113 133.465C113.366 133.484 113.617 133.509 113.87 133.522L113.882 129.202Z" fill="#E4EFE7"/>
<path d="M134.148 120.898C133.947 121.36 133.693 121.817 133.387 122.264L133.375 126.584C133.681 126.137 133.934 125.681 134.136 125.218L134.148 120.898Z" fill="#E4EFE7"/>
<path d="M129.316 130.211C129.579 130.054 129.831 129.894 130.074 129.731L130.086 125.411C129.842 125.574 129.59 125.735 129.328 125.891L129.316 130.211Z" fill="#E4EFE7"/>
<path d="M105.789 127.671C105.537 127.584 105.279 127.505 105.032 127.411L105.02 131.731C105.266 131.825 105.524 131.904 105.776 131.991L105.789 127.671Z" fill="#E4EFE7"/>
<path d="M131.356 124.461L131.344 128.781C131.611 128.557 131.867 128.329 132.103 128.097L132.115 123.777C131.88 124.009 131.624 124.237 131.356 124.461Z" fill="#E4EFE7"/>
<path d="M115.894 133.562L115.906 129.242C115.653 129.244 115.401 129.241 115.149 129.237L115.137 133.557C115.389 133.56 115.641 133.564 115.894 133.562Z" fill="#E4EFE7"/>
<path d="M109.834 128.728C109.58 128.682 109.329 128.628 109.077 128.575L109.065 132.895C109.317 132.948 109.567 133.002 109.822 133.048L109.834 128.728Z" fill="#E4EFE7"/>
<path d="M96.9419 125.147C97.1419 125.606 97.3929 126.059 97.6949 126.504L97.7069 122.184C97.4049 121.739 97.1529 121.286 96.9539 120.827L96.9419 125.147Z" fill="#E4EFE7"/>
<path d="M99.713 128.705L99.725 124.385C99.458 124.159 99.205 123.93 98.97 123.696L98.958 128.016C99.193 128.25 99.446 128.479 99.713 128.705Z" fill="#E4EFE7"/>
<path d="M101.746 125.821C101.485 125.663 101.233 125.503 100.99 125.339L100.978 129.659C101.22 129.823 101.472 129.984 101.734 130.141L101.746 125.821Z" fill="#E4EFE7"/>
<path d="M128.059 126.572C127.81 126.696 127.558 126.815 127.301 126.93L127.289 131.25C127.546 131.135 127.798 131.016 128.047 130.892L128.059 126.572Z" fill="#E4EFE7"/>
<path d="M121.98 128.607C121.727 128.658 121.478 128.716 121.223 128.761L121.211 133.081C121.466 133.036 121.716 132.979 121.969 132.927L121.98 128.607Z" fill="#E4EFE7"/>
<path d="M126.032 127.461C125.784 127.554 125.527 127.635 125.274 127.721L125.262 132.041C125.515 131.955 125.772 131.874 126.02 131.781L126.032 127.461Z" fill="#E4EFE7"/>
<path d="M119.955 128.95C119.702 128.984 119.452 129.025 119.198 129.053L119.186 133.373C119.44 133.345 119.691 133.304 119.943 133.27L119.955 128.95Z" fill="#E4EFE7"/>
<path d="M117.93 129.158C117.678 129.176 117.426 129.194 117.173 129.206L117.161 133.526C117.414 133.514 117.666 133.496 117.918 133.478L117.93 129.158Z" fill="#E4EFE7"/>
<path d="M124.006 128.118C123.755 128.189 123.503 128.258 123.248 128.322L123.236 132.642C123.491 132.578 123.743 132.509 123.994 132.438L124.006 128.118Z" fill="#E4EFE7"/>
<path d="M83.881 148.899L83.869 153.219C83.861 156.044 82.004 158.865 78.294 161.021C70.826 165.361 58.684 165.361 51.167 161.021C47.384 158.837 45.495 155.971 45.503 153.11L45.515 148.79C45.507 151.651 47.3959 154.517 51.1789 156.701C58.6959 161.041 70.838 161.041 78.306 156.701C82.016 154.544 83.873 151.724 83.881 148.899Z" fill="#E0AA34"/>
<path d="M76.2228 140.528C84.6868 144.13 86.3868 150.928 80.0208 155.716C73.6548 160.505 61.6388 161.466 53.1738 157.864C44.7098 154.262 43.0098 147.464 49.3758 142.676C55.7418 137.888 67.7578 136.926 76.2228 140.528ZM77.8098 154.776C83.2578 150.678 81.8028 144.861 74.5598 141.779C67.3168 138.697 57.0338 139.52 51.5858 143.618C46.1378 147.716 47.5928 153.533 54.8358 156.615C62.0788 159.697 72.3618 158.874 77.8098 154.776Z" fill="#E4EFE7"/>
<path d="M74.5598 141.778C81.8028 144.86 83.2578 150.678 77.8098 154.775C72.3618 158.873 62.0788 159.696 54.8358 156.614C47.5928 153.532 46.1378 147.714 51.5858 143.617C57.0338 139.519 67.3168 138.696 74.5598 141.778ZM76.8768 154.379C81.9368 150.573 80.5858 145.169 73.8578 142.307C67.1298 139.444 57.5788 140.209 52.5188 144.015C47.4588 147.821 48.8098 153.225 55.5378 156.087C62.2658 158.949 71.8168 158.185 76.8768 154.379Z" fill="#E0AA34"/>
<path d="M73.8576 142.306C80.5856 145.169 81.9366 150.572 76.8766 154.378C71.8166 158.184 62.2656 158.949 55.5376 156.086C48.8096 153.223 47.4586 147.82 52.5186 144.014C57.5796 140.208 67.1306 139.443 73.8576 142.306ZM75.2096 153.669C79.5746 150.385 78.4076 145.719 72.6046 143.249C66.8006 140.779 58.5516 141.44 54.1866 144.723C49.8216 148.006 50.9886 152.673 56.7916 155.143C62.5956 157.613 70.8446 156.953 75.2096 153.669Z" fill="#F4D586"/>
<path d="M72.6046 143.249C78.4086 145.719 79.5756 150.386 75.2096 153.669C70.8446 156.952 62.5946 157.613 56.7916 155.143C50.9876 152.673 49.8206 148.006 54.1866 144.723C58.5506 141.44 66.8006 140.78 72.6046 143.249Z" fill="#E4EFE7"/>
<path d="M70.2719 147.145C71.1879 147.963 70.9749 148.84 69.8129 149.714L69.6369 149.846L68.0449 149.169C68.6909 148.683 68.9419 148.237 68.7859 147.84L65.9519 149.163C67.7149 150.19 68.1729 151.076 66.9289 152.012L66.8349 152.083C65.4149 153.151 63.1889 153.227 60.8169 152.218C60.5669 152.112 60.3449 152.003 60.1219 151.895L58.3619 152.722L57.0669 152.171L59.1279 151.209C58.2319 150.358 58.3829 149.454 59.4739 148.633L59.5439 148.58L61.1359 149.257C60.5729 149.681 60.3879 150.114 60.5859 150.516L63.5689 149.117C61.7669 148.046 61.5539 147.196 62.6579 146.366L62.7519 146.295C64.1369 145.253 66.4529 145.257 68.6689 146.2C68.8719 146.286 69.0629 146.381 69.2379 146.47L70.9859 145.652L72.2809 146.203L70.2719 147.145ZM64.8439 148.526L67.9009 147.09C67.8349 147.048 67.7409 147.008 67.6629 146.975L67.5999 146.948C66.4609 146.463 65.1609 146.394 64.4439 146.932L64.3849 146.976C63.7889 147.427 63.8189 147.882 64.8439 148.526ZM65.1379 151.429L65.1969 151.385C65.8659 150.882 65.6879 150.391 64.6769 149.754L61.4319 151.276C61.5449 151.338 61.6699 151.391 61.7949 151.444L61.8569 151.471C63.0749 151.989 64.3629 152.012 65.1379 151.429Z" fill="#E0AA34"/>
<path d="M56.959 158.986C56.705 158.921 56.452 158.855 56.202 158.783L56.1899 163.103C56.4399 163.175 56.6929 163.241 56.9469 163.306L56.959 158.986Z" fill="#E4EFE7"/>
<path d="M61.0048 159.739C60.7508 159.71 60.5008 159.667 60.2478 159.632L60.2358 163.952C60.4888 163.987 60.7388 164.03 60.9928 164.059L61.0048 159.739Z" fill="#E4EFE7"/>
<path d="M52.146 161.531C52.395 161.657 52.644 161.782 52.902 161.899L52.914 157.579C52.656 157.462 52.407 157.337 52.158 157.211L52.146 161.531Z" fill="#E4EFE7"/>
<path d="M63.0288 159.907C62.7758 159.894 62.5238 159.869 62.2718 159.85L62.2598 164.17C62.5128 164.189 62.7638 164.214 63.0168 164.227L63.0288 159.907Z" fill="#E4EFE7"/>
<path d="M83.295 151.604C83.094 152.067 82.84 152.523 82.534 152.97L82.522 157.29C82.828 156.843 83.082 156.387 83.283 155.924L83.295 151.604Z" fill="#E4EFE7"/>
<path d="M78.4629 160.917C78.7259 160.76 78.9779 160.6 79.2209 160.437L79.2329 156.117C78.9899 156.28 78.7369 156.441 78.4749 156.597L78.4629 160.917Z" fill="#E4EFE7"/>
<path d="M54.936 158.377C54.684 158.29 54.426 158.211 54.179 158.117L54.167 162.437C54.413 162.531 54.671 162.61 54.923 162.697L54.936 158.377Z" fill="#E4EFE7"/>
<path d="M80.5037 155.167L80.4917 159.487C80.7597 159.263 81.0147 159.035 81.2507 158.803L81.2627 154.483C81.0267 154.715 80.7707 154.942 80.5037 155.167Z" fill="#E4EFE7"/>
<path d="M65.0407 164.267L65.0527 159.947C64.7997 159.949 64.5477 159.946 64.2957 159.942L64.2837 164.262C64.5357 164.266 64.7877 164.27 65.0407 164.267Z" fill="#E4EFE7"/>
<path d="M58.9809 159.434C58.7269 159.388 58.4759 159.334 58.2239 159.281L58.2119 163.601C58.4629 163.654 58.7139 163.708 58.9689 163.754L58.9809 159.434Z" fill="#E4EFE7"/>
<path d="M46.0889 155.853C46.2889 156.312 46.5399 156.765 46.8419 157.21L46.8539 152.89C46.5519 152.445 46.2999 151.992 46.1009 151.533L46.0889 155.853Z" fill="#E4EFE7"/>
<path d="M48.86 159.411L48.872 155.091C48.605 154.865 48.352 154.636 48.117 154.402L48.105 158.722C48.34 158.955 48.593 159.185 48.86 159.411Z" fill="#E4EFE7"/>
<path d="M50.893 156.527C50.632 156.369 50.38 156.209 50.137 156.045L50.125 160.365C50.367 160.529 50.619 160.69 50.881 160.847L50.893 156.527Z" fill="#E4EFE7"/>
<path d="M77.206 157.278C76.957 157.402 76.705 157.521 76.448 157.636L76.436 161.956C76.693 161.841 76.945 161.722 77.194 161.598L77.206 157.278Z" fill="#E4EFE7"/>
<path d="M71.1279 159.313C70.8749 159.364 70.6259 159.422 70.3699 159.467L70.3579 163.787C70.6129 163.742 70.8629 163.685 71.1159 163.633L71.1279 159.313Z" fill="#E4EFE7"/>
<path d="M75.1787 158.167C74.9307 158.26 74.6737 158.341 74.4207 158.427L74.4087 162.747C74.6617 162.661 74.9187 162.58 75.1667 162.487L75.1787 158.167Z" fill="#E4EFE7"/>
<path d="M69.102 159.656C68.849 159.69 68.599 159.731 68.345 159.759L68.333 164.079C68.588 164.051 68.838 164.01 69.09 163.976L69.102 159.656Z" fill="#E4EFE7"/>
<path d="M67.0771 159.864C66.8251 159.882 66.5731 159.9 66.3201 159.912L66.3081 164.232C66.5611 164.22 66.8131 164.202 67.0651 164.184L67.0771 159.864Z" fill="#E4EFE7"/>
<path d="M73.1528 158.824C72.9018 158.895 72.6498 158.964 72.3948 159.028L72.3828 163.348C72.6378 163.284 72.8898 163.215 73.1408 163.144L73.1528 158.824Z" fill="#E4EFE7"/>
<path d="M157.583 164.797L157.571 169.117C157.563 171.942 155.706 174.763 151.996 176.919C144.528 181.259 132.386 181.259 124.869 176.919C121.086 174.735 119.197 171.869 119.205 169.008L119.217 164.688C119.209 167.55 121.098 170.415 124.881 172.599C132.398 176.939 144.54 176.939 152.008 172.599C155.718 170.443 157.575 167.622 157.583 164.797Z" fill="#E0AA34"/>
<path d="M149.925 156.427C158.389 160.029 160.089 166.827 153.723 171.615C147.357 176.404 135.341 177.365 126.876 173.763C118.411 170.161 116.712 163.363 123.078 158.575C129.445 153.787 141.461 152.825 149.925 156.427ZM151.513 170.674C156.961 166.576 155.506 160.759 148.263 157.677C141.02 154.595 130.737 155.418 125.289 159.516C119.841 163.614 121.296 169.431 128.539 172.513C135.782 175.595 146.065 174.772 151.513 170.674Z" fill="#E4EFE7"/>
<path d="M148.263 157.677C155.506 160.759 156.961 166.577 151.513 170.674C146.065 174.772 135.782 175.595 128.539 172.513C121.296 169.431 119.841 163.613 125.289 159.516C130.737 155.418 141.02 154.595 148.263 157.677ZM150.58 170.277C155.64 166.471 154.289 161.068 147.561 158.205C140.833 155.342 131.282 156.107 126.222 159.913C121.162 163.719 122.513 169.122 129.241 171.985C135.968 174.848 145.519 174.083 150.58 170.277Z" fill="#E0AA34"/>
<path d="M147.561 158.205C154.289 161.068 155.64 166.471 150.58 170.277C145.52 174.083 135.969 174.848 129.241 171.985C122.513 169.122 121.162 163.719 126.222 159.913C131.282 156.106 140.833 155.342 147.561 158.205ZM148.913 169.568C153.278 166.285 152.111 161.618 146.308 159.148C140.504 156.678 132.255 157.339 127.89 160.622C123.525 163.905 124.692 168.572 130.495 171.042C136.298 173.512 144.547 172.851 148.913 169.568Z" fill="#F4D586"/>
<path d="M146.307 159.148C152.111 161.618 153.278 166.285 148.912 169.568C144.547 172.851 136.297 173.512 130.494 171.042C124.69 168.572 123.523 163.905 127.889 160.622C132.254 157.339 140.503 156.678 146.307 159.148Z" fill="#E4EFE7"/>
<path d="M143.975 163.044C144.891 163.862 144.678 164.739 143.516 165.613L143.34 165.745L141.748 165.068C142.394 164.582 142.644 164.136 142.489 163.739L139.654 165.062C141.417 166.089 141.875 166.975 140.631 167.911L140.537 167.982C139.117 169.05 136.89 169.126 134.519 168.117C134.269 168.011 134.047 167.902 133.825 167.794L132.066 168.621L130.771 168.07L132.831 167.108C131.935 166.257 132.086 165.353 133.177 164.532L133.247 164.479L134.839 165.156C134.276 165.58 134.091 166.013 134.289 166.415L137.272 165.017C135.47 163.946 135.257 163.096 136.361 162.266L136.455 162.195C137.84 161.153 140.156 161.157 142.372 162.1C142.575 162.186 142.766 162.281 142.941 162.37L144.689 161.552L145.984 162.103L143.975 163.044ZM138.547 164.425L141.604 162.989C141.538 162.947 141.444 162.907 141.366 162.874L141.304 162.847C140.165 162.362 138.864 162.293 138.148 162.831L138.089 162.875C137.491 163.326 137.522 163.781 138.547 164.425ZM138.841 167.328L138.9 167.284C139.569 166.781 139.391 166.29 138.38 165.653L135.135 167.175C135.248 167.237 135.373 167.29 135.498 167.343L135.56 167.37C136.777 167.887 138.066 167.91 138.841 167.328Z" fill="#E0AA34"/>
<path d="M130.661 174.884C130.407 174.819 130.154 174.753 129.904 174.681L129.892 179.001C130.142 179.073 130.395 179.139 130.649 179.204L130.661 174.884Z" fill="#E4EFE7"/>
<path d="M134.708 175.637C134.454 175.608 134.204 175.565 133.951 175.53L133.939 179.85C134.192 179.885 134.442 179.928 134.696 179.957L134.708 175.637Z" fill="#E4EFE7"/>
<path d="M125.848 177.43C126.097 177.556 126.347 177.681 126.604 177.798L126.616 173.478C126.358 173.361 126.109 173.236 125.86 173.11L125.848 177.43Z" fill="#E4EFE7"/>
<path d="M136.731 175.806C136.478 175.793 136.227 175.768 135.974 175.749L135.962 180.069C136.215 180.088 136.466 180.113 136.719 180.126L136.731 175.806Z" fill="#E4EFE7"/>
<path d="M156.998 167.502C156.797 167.965 156.543 168.421 156.237 168.868L156.225 173.188C156.531 172.741 156.785 172.285 156.986 171.822L156.998 167.502Z" fill="#E4EFE7"/>
<path d="M152.166 176.815C152.429 176.658 152.681 176.498 152.924 176.335L152.936 172.015C152.692 172.178 152.44 172.339 152.177 172.495L152.166 176.815Z" fill="#E4EFE7"/>
<path d="M128.639 174.276C128.387 174.189 128.129 174.11 127.883 174.016L127.871 178.336C128.117 178.43 128.376 178.509 128.627 178.596L128.639 174.276Z" fill="#E4EFE7"/>
<path d="M154.206 171.065L154.194 175.385C154.461 175.161 154.717 174.933 154.953 174.701L154.965 170.381C154.73 170.613 154.474 170.841 154.206 171.065Z" fill="#E4EFE7"/>
<path d="M138.743 180.166L138.755 175.846C138.502 175.848 138.251 175.845 137.998 175.841L137.986 180.161C138.239 180.165 138.491 180.168 138.743 180.166Z" fill="#E4EFE7"/>
<path d="M132.684 175.332C132.43 175.286 132.179 175.232 131.927 175.179L131.915 179.499C132.167 179.552 132.417 179.606 132.672 179.652L132.684 175.332Z" fill="#E4EFE7"/>
<path d="M119.791 171.751C119.99 172.21 120.242 172.663 120.544 173.108L120.556 168.788C120.254 168.343 120.002 167.891 119.803 167.431L119.791 171.751Z" fill="#E4EFE7"/>
<path d="M122.563 175.309L122.575 170.989C122.308 170.763 122.055 170.534 121.82 170.3L121.808 174.62C122.043 174.854 122.296 175.084 122.563 175.309Z" fill="#E4EFE7"/>
<path d="M124.595 172.425C124.333 172.267 124.082 172.107 123.839 171.943L123.827 176.263C124.069 176.427 124.321 176.588 124.583 176.745L124.595 172.425Z" fill="#E4EFE7"/>
<path d="M150.909 173.176C150.66 173.3 150.408 173.419 150.151 173.534L150.139 177.854C150.396 177.739 150.648 177.62 150.897 177.496L150.909 173.176Z" fill="#E4EFE7"/>
<path d="M144.83 175.212C144.577 175.263 144.328 175.32 144.072 175.366L144.06 179.686C144.315 179.641 144.565 179.584 144.818 179.532L144.83 175.212Z" fill="#E4EFE7"/>
<path d="M148.882 174.066C148.635 174.159 148.377 174.24 148.124 174.326L148.112 178.646C148.365 178.56 148.622 178.479 148.87 178.386L148.882 174.066Z" fill="#E4EFE7"/>
<path d="M142.805 175.554C142.552 175.588 142.302 175.629 142.048 175.657L142.036 179.977C142.291 179.949 142.541 179.908 142.794 179.874L142.805 175.554Z" fill="#E4EFE7"/>
<path d="M140.78 175.763C140.527 175.781 140.276 175.799 140.023 175.811L140.011 180.131C140.264 180.119 140.516 180.101 140.768 180.083L140.78 175.763Z" fill="#E4EFE7"/>
<path d="M146.856 174.722C146.605 174.793 146.353 174.862 146.098 174.926L146.086 179.246C146.341 179.182 146.593 179.113 146.844 179.042L146.856 174.722Z" fill="#E4EFE7"/>
<g opacity="0.42">
<path d="M194.667 49.15L194.366 154.95V155.12L112.396 202.76L112.666 107.78L112.696 96.79L194.667 49.15Z" fill="#FFF7F0"/>
<path d="M112.697 96.79L112.667 107.78L112.397 202.76L111.887 202.47L30.1867 155.29L29.8867 155.12L30.1867 49.15L112.697 96.79Z" fill="#FFF7F0"/>
</g>
<g opacity="0.42">
<path d="M192.656 52.631L192.369 153.967L114.406 199.278L114.666 107.785L114.693 97.942L192.656 52.631ZM194.667 49.15L112.696 96.79L112.666 107.78L112.396 202.76L194.366 155.12V154.95L194.667 49.15Z" fill="white"/>
<path d="M32.1767 52.608L110.694 97.942L110.667 107.773L110.407 199.304L31.8907 153.962L32.1767 52.608ZM30.1867 49.15L29.8867 155.12L30.1867 155.29L111.887 202.47L112.397 202.76L112.667 107.78L112.697 96.79L30.1867 49.15Z" fill="white"/>
</g>
<path d="M196.898 48.926L196.589 65.997L112.398 114.923L112.707 97.852L196.898 48.926Z" fill="#81522E"/>
<path d="M112.707 97.852L112.398 114.923L27.6558 65.998L27.9648 48.926L112.707 97.852Z" fill="#C19574"/>
<path d="M112.156 0L27.9648 48.926L112.707 97.852L196.898 48.926L112.156 0Z" fill="url(#paint0_radial_38_458)"/>
<path d="M134.276 40.871L126.266 36.247L90.5869 56.981L98.5969 61.605L134.276 40.871Z" fill="#81522E"/>
<path d="M113.789 16.621C121.686 12.062 128.084 15.756 128.084 24.874C128.084 33.992 121.686 45.074 113.789 49.633C105.892 54.192 99.4937 50.498 99.4937 41.38C99.4937 32.262 105.892 21.18 113.789 16.621ZM126.022 26.065C126.022 18.262 120.547 15.101 113.789 19.002C107.031 22.903 101.556 32.387 101.556 40.19C101.556 47.993 107.031 51.154 113.789 47.253C120.547 43.351 126.022 33.868 126.022 26.065Z" fill="#E4EFE7"/>
<path d="M113.789 19.002C120.547 15.1 126.022 18.262 126.022 26.065C126.022 33.868 120.547 43.351 113.789 47.253C107.031 51.155 101.556 47.993 101.556 40.19C101.556 32.387 107.032 22.903 113.789 19.002ZM125.152 26.567C125.152 19.319 120.066 16.383 113.79 20.007C107.513 23.631 102.428 32.439 102.428 39.687C102.428 46.935 107.514 49.871 113.79 46.247C120.066 42.623 125.152 33.815 125.152 26.567Z" fill="#E0AA34"/>
<path d="M113.789 20.007C120.066 16.383 125.151 19.319 125.151 26.567C125.151 33.815 120.065 42.623 113.789 46.247C107.512 49.871 102.427 46.935 102.427 39.687C102.427 32.44 107.513 23.631 113.789 20.007ZM123.596 27.465C123.596 21.213 119.204 18.677 113.789 21.803C108.374 24.929 103.982 32.537 103.982 38.789C103.982 45.041 108.374 47.577 113.789 44.451C119.204 41.325 123.596 33.718 123.596 27.465Z" fill="#F4D586"/>
<path d="M120.719 37.1355C124.548 30.5022 124.549 23.3325 120.719 21.1214C116.89 18.9104 110.68 22.4952 106.851 29.1285C103.021 35.7617 103.021 42.9315 106.85 45.1425C110.68 47.3536 116.889 43.7687 120.719 37.1355Z" fill="#E4EFE7"/>
<path d="M115.485 26.768C116.679 26.6 117.247 27.449 117.247 29.113V29.365L115.762 30.222C115.762 29.297 115.558 28.743 115.151 28.574L114.51 32.02C116.373 31.28 117.349 31.557 117.349 33.34V33.474C117.349 35.508 116.082 37.483 113.869 38.761C113.636 38.896 113.418 39.005 113.199 39.114L112.806 41.258L111.598 41.956L112.064 39.451C110.855 39.577 110.229 38.762 110.229 37.198V37.097L111.714 36.24C111.714 37.047 111.947 37.534 112.384 37.669L113.054 34.037C111.132 34.777 110.331 34.315 110.331 32.735V32.6C110.331 30.617 111.714 28.624 113.782 27.43C113.971 27.321 114.16 27.228 114.335 27.144L114.728 25.017L115.936 24.319L115.485 26.768ZM113.345 32.493L114.029 28.769C113.956 28.794 113.869 28.844 113.796 28.886L113.738 28.92C112.675 29.534 111.845 30.601 111.845 31.627V31.711C111.846 32.568 112.224 32.887 113.345 32.493ZM115.82 34.443V34.359C115.82 33.401 115.325 33.182 114.219 33.569L113.491 37.519C113.607 37.469 113.724 37.401 113.84 37.334L113.898 37.3C115.034 36.645 115.82 35.552 115.82 34.443Z" fill="#E0AA34"/>
<path d="M119.991 13.421C117.392 11.911 113.792 12.124 109.819 14.418C101.923 18.977 95.5449 30.023 95.5709 39.097C95.5839 43.608 97.1749 46.781 99.7419 48.273L103.666 50.553C101.099 49.061 99.5079 45.889 99.4949 41.377C99.4689 32.303 105.847 21.257 113.743 16.698C117.717 14.404 121.316 14.191 123.915 15.701L119.991 13.421Z" fill="#E0AA34"/>
<path d="M95.7005 36.863C95.6695 37.156 95.6425 37.448 95.6245 37.739L99.5485 40.02C99.5675 39.729 99.5945 39.437 99.6245 39.144L95.7005 36.863Z" fill="#E4EFE7"/>
<path d="M96.0497 34.603C95.9947 34.879 95.9337 35.155 95.8877 35.429L99.8117 37.709C99.8577 37.435 99.9177 37.158 99.9737 36.883L96.0497 34.603Z" fill="#E4EFE7"/>
<path d="M98.0458 28.374C97.9368 28.62 97.8408 28.868 97.7388 29.115L101.663 31.395C101.765 31.148 101.862 30.9 101.97 30.654L98.0458 28.374Z" fill="#E4EFE7"/>
<path d="M96.5719 32.443C96.4959 32.709 96.4269 32.974 96.3599 33.24L100.284 35.52C100.352 35.254 100.42 34.989 100.496 34.723L96.5719 32.443Z" fill="#E4EFE7"/>
<path d="M97.2394 30.369C97.1454 30.625 97.0674 30.882 96.9814 31.139L100.905 33.419C100.991 33.162 101.07 32.905 101.163 32.649L97.2394 30.369Z" fill="#E4EFE7"/>
<path d="M95.5776 39.255C95.5816 39.58 95.6026 39.89 95.6226 40.201L99.5466 42.482C99.5266 42.171 99.5056 41.861 99.5016 41.536L95.5776 39.255Z" fill="#E4EFE7"/>
<path d="M117.428 12.545C116.884 12.466 116.316 12.443 115.727 12.476L119.651 14.756C120.24 14.723 120.809 14.746 121.352 14.825L117.428 12.545Z" fill="#E4EFE7"/>
<path d="M95.8125 41.854C95.8755 42.219 95.9555 42.568 96.0425 42.908L99.9665 45.189C99.8785 44.849 99.7995 44.5 99.7365 44.135L95.8125 41.854Z" fill="#E4EFE7"/>
<path d="M101.485 48.534C101.17 48.101 100.878 47.639 100.633 47.119L96.7095 44.839C96.9545 45.36 97.2465 45.821 97.5615 46.254L101.485 48.534Z" fill="#E4EFE7"/>
<path d="M105.343 17.837C105.146 18.026 104.954 18.223 104.761 18.419L108.685 20.699C108.878 20.503 109.07 20.306 109.267 20.117L105.343 17.837Z" fill="#E4EFE7"/>
<path d="M111.057 13.769C110.779 13.902 110.499 14.046 110.217 14.2L114.141 16.48C114.423 16.326 114.703 16.182 114.981 16.049L111.057 13.769Z" fill="#E4EFE7"/>
<path d="M108.92 14.989C108.673 15.15 108.425 15.307 108.181 15.479L112.105 17.759C112.349 17.586 112.597 17.429 112.844 17.269L108.92 14.989Z" fill="#E4EFE7"/>
<path d="M113.644 12.809C113.302 12.898 112.956 13.001 112.604 13.124L116.528 15.404C116.88 15.281 117.226 15.177 117.568 15.089L113.644 12.809Z" fill="#E4EFE7"/>
<path d="M107.024 16.351C106.807 16.526 106.598 16.716 106.385 16.899L110.309 19.18C110.522 18.996 110.732 18.806 110.949 18.632L107.024 16.351Z" fill="#E4EFE7"/>
<path d="M98.9737 26.451C98.8507 26.687 98.7327 26.925 98.6167 27.163L102.541 29.443C102.658 29.204 102.776 28.967 102.898 28.731L98.9737 26.451Z" fill="#E4EFE7"/>
<path d="M100.013 24.592C99.8774 24.82 99.7394 25.046 99.6084 25.277L103.532 27.557C103.663 27.326 103.801 27.1 103.937 26.873L100.013 24.592Z" fill="#E4EFE7"/>
<path d="M101.166 22.799C101.016 23.018 100.859 23.232 100.713 23.456L104.637 25.736C104.783 25.513 104.94 25.299 105.09 25.079L101.166 22.799Z" fill="#E4EFE7"/>
<path d="M103.821 19.416C103.641 19.617 103.461 19.817 103.284 20.024L107.208 22.304C107.384 22.097 107.564 21.897 107.745 21.696L103.821 19.416Z" fill="#E4EFE7"/>
<path d="M102.433 21.072C102.268 21.283 102.098 21.489 101.938 21.704L105.862 23.984C106.023 23.769 106.192 23.562 106.357 23.352L102.433 21.072Z" fill="#E4EFE7"/>
<path d="M134.276 40.871L126.266 36.247V45.526L134.276 40.871Z" fill="#C19574"/>
<defs>
<radialGradient id="paint0_radial_38_458" cx="0" cy="0" r="1" gradientUnits="userSpaceOnUse" gradientTransform="translate(80.4312 31.8225) scale(86.2169 86.2169)">
<stop offset="0.2775" stop-color="#B17F59" stop-opacity="0.8"/>
<stop offset="1" stop-color="#C19574" stop-opacity="0.8"/>
</radialGradient>
</defs>
</svg>
