<svg width="216" height="245" viewBox="0 0 216 245" fill="none" xmlns="http://www.w3.org/2000/svg">
<path d="M214.182 17.8263C214.182 17.8263 206.52 25.7885 182.956 25.7885C177.727 25.7885 171.707 25.3956 164.821 24.4371C125.217 18.9225 108.319 0 108.319 0C108.319 0 91.4192 18.9225 51.8082 24.4371C44.9187 25.3973 38.9039 25.7885 33.673 25.7885C10.1122 25.7885 2.44379 17.8263 2.44379 17.8263C2.44379 17.8263 -20.4438 164.435 108.319 245.002C237.071 164.435 214.182 17.8263 214.182 17.8263Z" fill="white"/>
<path opacity="0.3" d="M51.8082 24.4371C44.9187 25.3973 38.9039 25.7901 33.673 25.7901C10.1122 25.7901 2.44379 17.828 2.44379 17.828C2.44379 17.828 -20.4438 164.437 108.319 245.004V0C108.319 0 91.4192 18.9225 51.8082 24.4371Z" fill="url(#paint0_radial_15_1579)"/>
<path d="M172.545 100.869H126.383V54.7061H93.5561V100.869H47.3948V133.696H93.5561V179.858H126.383V133.696H172.545V100.869Z" fill="url(#paint1_radial_15_1579)"/>
<defs>
<radialGradient id="paint0_radial_15_1579" cx="0" cy="0" r="1" gradientUnits="userSpaceOnUse" gradientTransform="translate(173.744 84.2347) scale(213.52 213.52)">
<stop offset="0.1906" stop-color="#FEF4ED"/>
<stop offset="1" stop-color="#B17F59"/>
</radialGradient>
<radialGradient id="paint1_radial_15_1579" cx="0" cy="0" r="1" gradientUnits="userSpaceOnUse" gradientTransform="translate(183.463 54.882) scale(133.648 133.648)">
<stop offset="0.0376" stop-color="#FFF6F0"/>
<stop offset="1" stop-color="#B17F59"/>
</radialGradient>
</defs>
</svg>
