<svg width="114" height="114" viewBox="0 0 114 114" fill="none" xmlns="http://www.w3.org/2000/svg">
<path d="M71.8276 19.4761C76.874 21.4989 81.3718 24.4483 85.1961 28.2421C88.8913 31.9079 91.808 36.2052 93.8648 41.0145C95.9217 45.8239 97.0146 50.9011 97.113 56.1052C97.2148 61.4912 96.2407 66.7809 94.2179 71.8271C92.195 76.8734 89.2456 81.3713 85.4518 85.1956C81.786 88.8908 77.4888 91.8075 72.6794 93.8644C67.8701 95.9212 62.7928 97.0142 57.5887 97.1125C52.2028 97.2143 46.9131 96.2403 41.8668 94.2174C37.8584 92.6106 34.1682 90.3995 30.8987 87.6457C27.7368 84.9825 25.0116 81.8506 22.7986 78.3371L21.7667 76.6987L19.8306 76.7225L10.0949 76.8421L16.9055 69.8845L18.2597 68.5011L17.7881 66.6235C16.7763 62.5964 16.3943 58.4625 16.6526 54.3366C16.9197 50.0701 17.8698 45.8745 19.4766 41.8661C21.4995 36.8198 24.4488 32.322 28.2427 28.4977C31.9084 24.8024 36.2057 21.8858 41.0151 19.8289C45.8244 17.7721 50.9017 16.6791 56.1058 16.5808C61.4917 16.479 66.7812 17.4532 71.8276 19.4761ZM73.1141 16.2669C50.7028 7.28307 25.2511 18.1686 16.2673 40.5799C12.7039 49.4693 12.267 58.8374 14.4348 67.4661L1.77195 80.4021L19.8731 80.1798C24.6148 87.7084 31.6909 93.8632 40.5803 97.4266C62.9916 106.41 88.4433 95.5249 97.4271 73.1136C106.411 50.7023 95.5253 25.2506 73.1141 16.2669Z" fill="#FFF6F0"/>
<path d="M65.7398 79.4959L62.3489 80.9462C58.9463 82.4015 54.9888 81.4313 52.6523 78.5618C50.2975 75.6695 46.849 69.9571 43.6551 62.4894C40.4612 55.0217 38.7127 48.5824 38.2478 44.8818C37.7865 41.2102 39.8184 37.6783 43.2211 36.223L46.612 34.7727C47.5343 34.3783 48.6018 34.8062 48.9963 35.7285L53.4526 46.1474C53.8471 47.0696 53.4192 48.1372 52.4969 48.5317L50.648 49.3222C49.8262 49.6739 49.34 50.5321 49.4646 51.4172C49.6803 52.9489 50.2459 55.5731 51.7272 59.0371C53.2087 62.5012 54.7159 64.723 55.6745 65.9365C56.2284 66.638 57.1848 66.8792 58.0068 66.5279L59.8554 65.7373C60.7776 65.3428 61.8451 65.7708 62.2397 66.693L66.6957 77.1118C67.0901 78.0339 66.6622 79.1014 65.7398 79.4959Z" fill="#FFF6F0"/>
<path d="M73.5695 62.7877C73.5262 62.7747 73.4837 62.7599 73.4419 62.7431C72.7637 62.4713 72.3923 61.7232 72.6037 61.0089C73.6393 57.5113 73.4186 53.7348 71.9821 50.375C70.5447 47.0155 67.9664 44.2474 64.7219 42.5803C64.0185 42.219 63.7417 41.356 64.1027 40.6533C64.464 39.9499 65.3272 39.6724 66.03 40.0334C69.867 42.0048 72.9153 45.2772 74.6145 49.249C76.3132 53.2207 76.5737 57.6858 75.3485 61.8211C75.1239 62.5795 74.3276 63.0123 73.5695 62.7877Z" fill="#FFF6F0"/>
<path d="M62.7331 58.0907C62.5085 58.8489 61.7119 59.2809 60.9544 59.0565C60.9104 59.0433 60.8679 59.0284 60.8268 59.012C60.1485 58.7401 59.7766 57.9917 59.9882 57.2768C60.159 56.7006 60.124 56.1026 59.8866 55.5478C59.6497 54.9939 59.2416 54.5556 58.7065 54.2802C58.0034 53.9198 57.726 53.0566 58.0873 52.3532C58.4486 51.6498 59.3105 51.3718 60.0143 51.734C61.1342 52.3092 62.0236 53.2635 62.5189 54.4226C63.015 55.5813 63.0907 56.8836 62.7331 58.0907Z" fill="#FFF6F0"/>
<path d="M69.0399 59.9562C68.8152 60.7144 68.0186 61.1464 67.2604 60.9218C67.2172 60.9088 67.1746 60.8939 67.1328 60.8772C66.4546 60.6053 66.0826 59.857 66.2949 59.1423C66.8973 57.1102 66.7689 54.9151 65.9334 52.9616C65.0979 51.0082 63.5993 49.3991 61.7137 48.431C61.0103 48.0697 60.7326 47.2071 61.0939 46.5037C61.4552 45.8003 62.3165 45.5221 63.0212 45.8839C65.4993 47.1564 67.4684 49.2697 68.5658 51.8357C69.6632 54.4017 69.8314 57.2854 69.0399 59.9562Z" fill="#FFF6F0"/>
</svg>
