<svg width="47" height="56" viewBox="0 0 47 56" fill="none" xmlns="http://www.w3.org/2000/svg">
<path d="M38.5044 8.37051C38.4167 6.99812 38.3044 5.64006 37.8289 4.32112C37.1197 2.35374 35.534 0.632943 32.891 0.733515C32.8467 0.735159 32.8017 0.717722 32.7195 0.702056C33.4657 0.278045 34.3042 0.293493 35.0487 0H36.5199C37.126 0.234032 37.7849 0.287997 38.3675 0.620999C40.0284 1.57041 40.8183 3.10284 41.2331 4.87015C41.7884 7.23553 41.6571 9.61467 41.2978 11.9962C41.087 13.393 40.7781 14.7655 40.4076 16.1263C40.381 16.2238 40.3324 16.3154 40.2891 16.4221C39.4882 15.7706 38.7081 15.1319 37.9225 14.5001C37.7472 14.3591 37.8001 14.2132 37.8423 14.0334C38.2384 12.3478 38.4593 10.6391 38.4814 8.9063C39.1964 8.66309 39.9114 8.41984 40.6265 8.17664C39.8974 8.10173 39.2028 8.25289 38.5044 8.37051Z" fill="#EB3338"/>
<path d="M19.3997 30.4972C18.3334 30.0235 17.2642 29.5562 16.2033 29.0709C15.9931 28.9747 15.9382 29.0231 15.8967 29.2276C15.4824 31.2666 15.2442 33.3079 15.9823 35.3232C16.3658 36.3704 17.1157 37.0652 18.2981 37.3257C17.6221 37.6958 16.9959 37.9148 16.3031 37.9626C15.4829 38.0194 14.9384 37.6525 14.5633 36.9562C14.1025 36.1008 14.0083 35.1561 13.9426 34.2203C13.8443 32.82 13.9952 31.4253 14.195 30.0385C14.2671 29.5388 14.3395 29.0379 14.4471 28.5452C14.5201 28.2109 14.3008 28.1212 14.0869 28.0072C11.9899 26.8886 9.94679 25.6825 8.03818 24.2601C5.79882 22.5911 3.71287 20.7595 2.07204 18.4761C1.04586 17.0481 0.21337 15.5354 0.0316578 13.7305C-0.169918 11.728 0.596141 10.1875 2.18655 9.02955C3.83105 7.83217 5.75437 7.43534 7.72214 7.17136C7.04424 7.55962 6.34551 7.90608 5.76026 8.43231C4.17041 9.8616 3.6599 11.6331 4.10425 13.6963C4.56959 15.8563 5.81699 17.578 7.2806 19.1501C10.1517 22.2336 13.6307 24.4835 17.3535 26.3916C20.261 27.8818 23.2771 29.0925 26.4198 29.9874C28.569 30.5995 30.7503 31.0681 32.9746 31.2744C35.753 31.5323 38.5258 31.5535 41.2284 30.6824C42.5292 30.2632 43.7149 29.646 44.6101 28.5851C45.5913 27.4224 45.8266 26.2107 45.5637 24.1836C46.001 24.873 46.3246 25.6186 46.5003 26.4172C47.2412 29.7837 45.5016 31.8772 42.645 32.9913C39.9215 34.0537 37.0653 34.1761 34.1829 33.9868C33.3985 33.9353 32.6122 33.8974 31.8383 33.7484C31.569 33.6966 31.4641 33.8765 31.3386 34.043C29.8938 35.9602 28.3202 37.7653 26.5725 39.4117C24.4632 41.3987 22.2061 43.1837 19.4789 44.2633C18.1228 44.8001 16.7312 45.1547 15.2409 44.8999C13.3015 44.5685 12.0622 43.4022 11.2977 41.6644C10.5503 39.9653 10.4035 38.1616 10.4364 36.332C10.4433 35.9473 10.4374 35.5623 10.4853 35.1685C10.716 35.8479 10.8392 36.5522 11.0916 37.222C12.3099 40.4538 15.0373 41.6082 18.2218 40.7234C20.4492 40.1046 22.3262 38.832 24.0553 37.3304C24.0897 37.3006 24.1016 37.2451 24.1241 37.2015C24.1241 37.2015 24.1181 37.2096 24.1181 37.2096C24.6109 36.9937 24.9317 36.5653 25.3104 36.2155C26.3228 35.2802 27.2443 34.2577 28.1672 33.1413C26.3239 32.7534 24.5948 32.2373 22.8603 31.7414C21.7508 31.2041 20.5598 30.8937 19.3997 30.4972Z" fill="#EB3338"/>
<path d="M38.5043 8.37051C39.2027 8.25289 39.8973 8.10173 40.6264 8.17664C39.9114 8.41984 39.1964 8.66309 38.4814 8.9063C35.6758 9.84879 32.963 10.961 30.8178 13.1075C30.6832 13.2421 30.5644 13.3925 30.4382 13.5355C29.8848 14.0134 29.4182 14.5713 28.9593 15.1365C26.4392 18.0809 24.5861 21.38 23.6621 25.165C23.493 25.8575 23.3607 26.5637 23.3697 27.2847C23.3731 27.5573 23.3461 27.7196 22.9867 27.5693C21.7516 27.0528 20.5055 26.5623 19.2585 26.0749C19.0231 25.9829 18.9638 25.8433 18.9518 25.6047C18.8888 24.3447 18.8436 23.0862 18.9323 21.825C18.9604 21.4253 18.9343 21.0215 18.933 20.6196C18.9786 19.1202 19.0503 17.6209 18.9672 16.1204C19.0153 14.6742 18.8968 13.2461 18.5061 11.8473C18.3383 11.2224 18.1705 10.5975 18.0027 9.9726C17.4082 7.76323 16.4125 5.72613 15.3226 3.72954C15.357 3.70445 15.3914 3.67935 15.4257 3.65416C16.378 4.89512 17.2407 6.20614 18.2908 7.37038C19.5997 8.82161 20.9521 10.223 22.8328 10.951C23.4339 11.2304 24.0534 11.4192 24.7281 11.3352C26.0248 11.3099 27.2638 10.9472 28.5173 10.6762C31.7212 9.98329 34.8875 9.12458 38.1063 8.49635C38.2419 8.46987 38.3718 8.41322 38.5043 8.37051Z" fill="#027CC1"/>
<path d="M28.9592 15.1365C29.4182 14.5713 29.8848 14.0134 30.4382 13.5355C33.0681 14.8133 35.523 16.3646 37.7704 18.2383C39.143 19.3828 40.4144 20.6225 41.4201 22.1146C41.7244 22.566 41.9739 23.0456 42.1733 23.5463C42.6908 24.8462 42.3681 26.0373 41.2618 27.0246L41.2691 27.0349C41.3127 25.9961 41.2333 24.9856 40.6927 24.055C40.1711 23.1569 39.5178 22.3639 38.8257 21.5971C38.5993 21.3465 38.522 21.5128 38.4425 21.7109C37.7332 23.4763 36.8831 25.1743 35.981 26.8473C35.8403 27.1082 35.6945 27.3665 35.5447 27.6224C34.9762 28.5944 34.9526 28.6024 33.8237 28.4583C33.2867 28.3897 32.7495 28.3078 32.21 28.2795C31.8228 28.2594 31.7546 28.1704 31.9679 27.8317C32.3864 27.1674 32.783 26.489 33.1748 25.8085C34.3077 23.8415 35.2799 21.7977 36.1141 19.6859C36.2398 19.3677 36.1192 19.246 35.9057 19.0922C34.3011 17.9369 32.5991 16.9434 30.8398 16.0468C30.2194 15.7306 29.5865 15.4392 28.9592 15.1365Z" fill="#EB3439"/>
<path d="M28.4981 7.65366C27.9346 9.24805 26.9142 10.0194 25.4139 9.98502C23.9257 9.95092 22.6416 8.60061 22.6301 7.05811C22.6183 5.46337 23.8068 4.16875 25.3299 4.07246C26.5992 3.99223 27.4921 4.58926 28.2006 5.56433C28.5227 6.22904 28.6141 6.92659 28.4981 7.65366Z" fill="#027CC1"/>
<path d="M18.0026 9.9726C18.1704 10.5975 18.3382 11.2224 18.5061 11.8474C16.5983 11.633 14.6949 11.3391 12.7647 11.5605C11.3335 11.7246 9.93449 11.9629 8.77835 12.9369C8.25754 13.3758 8.02052 13.9647 7.80851 14.6014C7.41826 14.1033 7.17341 13.5689 7.02142 12.9938C6.76346 12.018 7.13316 11.2534 8.14295 10.7195C9.14576 10.1893 10.2443 9.99606 11.3577 9.87527C13.5765 9.63458 15.7906 9.73805 18.0026 9.9726Z" fill="#EB3439"/>
<path d="M19.3997 30.4972C20.5597 30.8937 21.7507 31.2041 22.8602 31.7414C23.19 33.5847 23.6969 35.3873 24.118 37.2096C24.118 37.2096 24.1241 37.2015 24.124 37.2015C23.5111 36.9499 23.1688 36.4048 22.785 35.9213C21.6029 34.4322 20.5679 32.8425 19.6605 31.1716C19.5465 30.9615 19.4853 30.7227 19.3997 30.4972Z" fill="#057EC2"/>
<path d="M28.4982 7.65366C28.6142 6.92659 28.5228 6.22904 28.2007 5.56433C29.2773 4.81528 30.3924 4.16053 31.7211 3.95021C32.9329 3.75833 33.7734 4.32259 34.5843 5.26941C32.2074 5.02503 30.4914 6.20744 28.805 7.46688C28.7095 7.5382 28.6007 7.59186 28.4982 7.65366Z" fill="#EB3439"/>
<path d="M18.9672 16.1204C19.0503 17.6209 18.9786 19.1202 18.933 20.6196C18.4911 21.3707 18.1763 22.1822 17.8315 22.9781C17.7224 23.2296 17.631 23.2778 17.426 23.1092C17.4127 23.0982 17.3961 23.0913 17.3817 23.0815C16.9791 22.8083 16.4026 22.6167 16.2247 22.2378C16.057 21.8806 16.4689 21.3809 16.6361 20.9493C17.2837 19.278 18.0171 17.6464 18.9672 16.1204Z" fill="#EB3439"/>
<path d="M24.728 11.3352C24.0533 11.4192 23.4338 11.2304 22.8328 10.951C23.506 10.8742 24.103 11.1737 24.728 11.3352Z" fill="#EB3439"/>
<path d="M15.2218 3.54086C15.1862 3.49196 15.1506 3.44315 15.115 3.39425C15.2029 3.34067 15.2655 3.36447 15.3057 3.45673C15.2777 3.48478 15.2498 3.51282 15.2218 3.54086Z" fill="#027CC1"/>
<path d="M15.3057 3.4567C15.3997 3.48971 15.4105 3.57323 15.4257 3.6542C15.3914 3.6793 15.357 3.7044 15.3226 3.72959C15.2889 3.66662 15.2553 3.60366 15.2218 3.54082C15.2498 3.51278 15.2777 3.48474 15.3057 3.4567Z" fill="#027CC1"/>
<path d="M41.2618 27.0246C41.2469 27.0335 41.2329 27.0445 41.2169 27.0504C41.2105 27.0529 41.2 27.0448 41.1914 27.0414C41.217 27.0389 41.2426 27.0363 41.2686 27.0343C41.269 27.0349 41.2618 27.0246 41.2618 27.0246Z" fill="#EB3439"/>
<path fill-rule="evenodd" clip-rule="evenodd" d="M15.4941 47.2565L15.5572 50.0449H15.3049C15.1853 49.3468 14.8929 48.7853 14.426 48.3607C13.9572 47.9357 13.4523 47.7234 12.91 47.7234C12.4892 47.7234 12.1569 47.8349 11.9131 48.0599C11.6673 48.2826 11.545 48.5414 11.545 48.8315C11.545 49.0168 11.5893 49.1806 11.6754 49.3257C11.7934 49.5171 11.9846 49.7083 12.2496 49.8976C12.4431 50.0322 12.8888 50.2741 13.5869 50.619C14.5668 51.0983 15.2272 51.5525 15.5679 51.9794C15.9064 52.4063 16.0745 52.8943 16.0745 53.4451C16.0745 54.1431 15.8014 54.7427 15.2568 55.2451C14.7119 55.7477 14.0203 56 13.1811 56C12.9184 56 12.6681 55.9727 12.4346 55.92C12.1992 55.8677 11.9046 55.7666 11.5516 55.6173C11.3539 55.5354 11.1919 55.4954 11.0635 55.4954C10.9562 55.4954 10.845 55.5373 10.725 55.6193C10.6051 55.7035 10.5085 55.8296 10.435 56H10.2205V52.8459H10.435C10.6158 53.7312 10.9647 54.4082 11.48 54.8728C11.9973 55.3377 12.5523 55.5711 13.1496 55.5711C13.6099 55.5711 13.978 55.445 14.2515 55.1946C14.5249 54.9443 14.6614 54.6543 14.6614 54.32C14.6614 54.1243 14.6091 53.9331 14.5038 53.7478C14.3987 53.5628 14.241 53.3882 14.0265 53.2201C13.8119 53.0539 13.4334 52.8374 12.8911 52.5705C12.1296 52.1982 11.5831 51.8786 11.2508 51.6156C10.9208 51.3529 10.6662 51.0583 10.4874 50.7345C10.3086 50.4087 10.2205 50.0513 10.2205 49.6622C10.2205 48.9956 10.4643 48.428 10.9543 47.9588C11.442 47.49 12.0581 47.2565 12.8026 47.2565C13.0738 47.2565 13.3368 47.288 13.5911 47.3534C13.7846 47.4038 14.0203 47.4942 14.2976 47.6265C14.5753 47.7592 14.7687 47.8242 14.8802 47.8242C14.9876 47.8242 15.0714 47.7927 15.1326 47.7276C15.1933 47.6623 15.2525 47.5046 15.3049 47.2565H15.4941ZM22.5976 52.9616L24.881 47.4457H28.2644V47.6603H27.9932C27.7493 47.6603 27.5517 47.7046 27.4044 47.7927C27.3013 47.8518 27.2194 47.9484 27.1586 48.0872C27.1144 48.188 27.0913 48.4488 27.0913 48.8714V54.3851C27.0913 54.8162 27.1144 55.0854 27.1586 55.1927C27.2048 55.2997 27.2952 55.3943 27.4359 55.4742C27.5748 55.5562 27.7598 55.5962 27.9932 55.5962H28.2644V55.8108H23.9118V55.5962H24.183C24.4268 55.5962 24.6245 55.552 24.7718 55.4658C24.8749 55.407 24.9568 55.3081 25.0179 55.1673C25.0618 55.0685 25.0852 54.8077 25.0852 54.3851V48.1945L21.8719 55.8108H21.725L18.4675 48.2491V54.1328C18.4675 54.547 18.4782 54.8016 18.499 54.8962C18.5539 55.102 18.6694 55.2704 18.8482 55.4008C19.027 55.5311 19.3086 55.5962 19.6912 55.5962V55.8108H16.8275V55.5962H16.9156C17.1006 55.6004 17.2732 55.5711 17.4329 55.5058C17.5948 55.4407 17.7148 55.3546 17.7967 55.2473C17.8809 55.14 17.944 54.9885 17.9882 54.7931C17.9967 54.7466 18.0009 54.5366 18.0009 54.1581V48.8714C18.0009 48.4403 17.9797 48.1714 17.9336 48.0661C17.8894 47.9588 17.7967 47.8642 17.6559 47.7822C17.5151 47.7003 17.3279 47.6603 17.0944 47.6603H16.8275V47.4457H20.2382L22.5976 52.9616ZM36.4506 47.4457V49.7041H36.236C36.1037 49.1826 35.9587 48.8084 35.7987 48.5814C35.6391 48.3522 35.418 48.1714 35.1383 48.0368C34.9829 47.963 34.7095 47.9253 34.3183 47.9253H33.6876V54.3851C33.6876 54.8162 33.7107 55.0854 33.7569 55.1927C33.803 55.2997 33.8957 55.3943 34.0303 55.4742C34.1668 55.5562 34.3518 55.5962 34.5876 55.5962H34.861V55.8108H30.5081V55.5962H30.7835C31.0231 55.5962 31.2166 55.552 31.3639 55.4658C31.4689 55.407 31.5531 55.3081 31.6142 55.1673C31.6584 55.0685 31.6815 54.8077 31.6815 54.3851V47.9253H31.0758C30.5166 47.9253 30.1105 48.0453 29.8562 48.2826C29.5009 48.6149 29.2778 49.088 29.1832 49.7041H28.9436V47.4457H36.4506Z" fill="#027CC1"/>
</svg>
