<svg width="81" height="80" viewBox="0 0 81 80" fill="none" xmlns="http://www.w3.org/2000/svg">
<path fill-rule="evenodd" clip-rule="evenodd" d="M5.36051 71.1055L5.42758 73.9431H5.16961C5.04579 73.2311 4.75171 72.6636 4.27705 72.2302C3.79724 71.7968 3.28647 71.5801 2.73443 71.5801C2.3062 71.5801 1.96569 71.6936 1.71804 71.9258C1.4704 72.1528 1.34658 72.4159 1.34658 72.71C1.34658 72.8957 1.39301 73.066 1.48072 73.2105C1.59938 73.4065 1.79027 73.6026 2.06372 73.7935C2.25977 73.9328 2.71379 74.1752 3.42061 74.5261C4.42151 75.0162 5.09222 75.4754 5.43789 75.9088C5.78357 76.3473 5.95382 76.8426 5.95382 77.3998C5.95382 78.1118 5.67522 78.7206 5.11802 79.2313C4.56597 79.7421 3.86431 80.0001 3.00787 80.0001C2.74474 80.0001 2.48678 79.9743 2.24945 79.9175C2.01212 79.8659 1.71289 79.7627 1.35173 79.6131C1.15052 79.5254 0.985425 79.4893 0.856443 79.4893C0.748097 79.4893 0.634593 79.5306 0.51077 79.6131C0.392106 79.7008 0.28892 79.8246 0.21669 80.0001H0V76.791H0.21669C0.402425 77.6939 0.753257 78.3801 1.2795 78.8547C1.80575 79.3242 2.36812 79.5615 2.97691 79.5615C3.44641 79.5615 3.81788 79.4377 4.09648 79.1797C4.37508 78.9269 4.51438 78.6329 4.51438 78.2923C4.51438 78.0911 4.46279 77.9002 4.35444 77.7093C4.2461 77.5236 4.08616 77.343 3.86947 77.1728C3.65278 77.0025 3.26583 76.7858 2.71379 76.5124C1.93989 76.1358 1.38269 75.8107 1.04734 75.5424C0.711982 75.2742 0.454018 74.9749 0.268283 74.6447C0.087708 74.3145 0 73.9482 0 73.5561C0 72.8751 0.247646 72.2973 0.742938 71.8226C1.24339 71.3428 1.86766 71.1055 2.62608 71.1055C2.89952 71.1055 3.16781 71.1416 3.42577 71.2087C3.62182 71.2551 3.86431 71.348 4.14291 71.4821C4.42667 71.6214 4.62273 71.6833 4.73623 71.6833C4.84458 71.6833 4.93228 71.6524 4.9942 71.5853C5.05611 71.5182 5.11802 71.3583 5.16961 71.1055H5.36051ZM6.76383 71.3015H11.1492V71.5182H10.9325C10.6023 71.5182 10.3753 71.5543 10.2515 71.6214C10.1225 71.6936 10.0348 71.7865 9.98839 71.9103C9.93164 72.0341 9.90584 72.3385 9.90584 72.8287V76.987C9.90584 77.7506 9.96259 78.2511 10.0761 78.4987C10.1948 78.7464 10.3805 78.9527 10.6436 79.1127C10.9067 79.2778 11.2421 79.3603 11.6394 79.3603C12.1037 79.3603 12.4906 79.2571 12.8157 79.0508C13.1407 78.8392 13.378 78.5555 13.538 78.1943C13.7031 77.828 13.7805 77.1986 13.7805 76.2957V72.8287C13.7805 72.4469 13.7392 72.1683 13.6618 72.0083C13.5844 71.8432 13.4812 71.7297 13.3626 71.6627C13.1717 71.5698 12.9086 71.5182 12.5629 71.5182V71.3015H15.5037V71.5182H15.3283C15.0909 71.5182 14.8897 71.5698 14.7349 71.6627C14.575 71.7607 14.4615 71.9052 14.3893 72.1012C14.3377 72.2354 14.3067 72.4778 14.3067 72.8287V76.0584C14.3067 77.0541 14.2396 77.7764 14.1107 78.2201C13.9765 78.6638 13.6618 79.0714 13.151 79.4429C12.6403 79.8143 11.9489 80.0001 11.0667 80.0001C10.3289 80.0001 9.76138 79.902 9.36412 79.706C8.81723 79.4377 8.43028 79.0972 8.20328 78.6741C7.98143 78.2614 7.86792 77.699 7.86792 76.9922V72.8287C7.86792 72.3334 7.83697 72.029 7.78537 71.9052C7.72862 71.7865 7.63575 71.6936 7.50161 71.6214C7.36747 71.5492 7.11982 71.5131 6.76383 71.5182V71.3015ZM15.9009 79.8092V79.5873H16.1795C16.4272 79.5873 16.6181 79.5512 16.7471 79.4738C16.8812 79.3964 16.9792 79.2881 17.0411 79.1539C17.0773 79.0662 17.0927 78.8031 17.0927 78.3594V72.7513C17.0927 72.3127 17.0721 72.0393 17.0257 71.931C16.9792 71.8174 16.8864 71.7246 16.7471 71.642C16.6078 71.5595 16.422 71.5182 16.1795 71.5182H15.9009V71.3015H19.7033C20.7197 71.3015 21.5349 71.4408 22.154 71.7143C22.9124 72.0548 23.4851 72.5655 23.872 73.2517C24.2642 73.9379 24.4602 74.7118 24.4602 75.5786C24.4602 76.177 24.3622 76.7291 24.1713 77.2347C23.9804 77.7351 23.7327 78.153 23.4283 78.4832C23.124 78.8083 22.768 79.0714 22.3707 79.2726C21.9734 79.4687 21.4833 79.6234 20.9106 79.7318C20.6526 79.7834 20.2502 79.8092 19.7033 79.8092H15.9009ZM19.1358 71.7762V78.411C19.1358 78.7618 19.1513 78.9785 19.1874 79.0559C19.2184 79.1385 19.2751 79.1952 19.3577 79.2365C19.4712 79.3036 19.6311 79.3345 19.8478 79.3345C20.5443 79.3345 21.0809 79.0972 21.4472 78.6174C21.9476 77.9725 22.2004 76.9716 22.2004 75.6198C22.2004 74.5261 22.0302 73.6593 21.6845 73.0041C21.4162 72.4933 21.0654 72.1476 20.6372 71.9619C20.3328 71.8329 19.8323 71.771 19.1358 71.7762ZM28.5051 75.7127V78.3594C28.5051 78.798 28.5257 79.0714 28.5773 79.1797C28.6238 79.2881 28.7166 79.3861 28.8559 79.4635C28.9952 79.5512 29.181 79.5873 29.4183 79.5873H29.6969V79.8092H25.2702V79.5873H25.5488C25.7965 79.5873 25.9977 79.546 26.1473 79.4583C26.2556 79.3964 26.3382 79.2984 26.3949 79.1539C26.4414 79.0508 26.462 78.7876 26.462 78.3594V72.7513C26.462 72.3127 26.4414 72.0393 26.3949 71.931C26.3485 71.8174 26.2556 71.7246 26.1163 71.642C25.977 71.5595 25.7913 71.5182 25.5488 71.5182H25.2702V71.3015H29.6969V71.5182H29.4183C29.1758 71.5182 28.9797 71.5646 28.8301 71.6524C28.7218 71.7091 28.6341 71.8123 28.5722 71.9567C28.5257 72.0548 28.5051 72.3179 28.5051 72.7513V75.1607H31.5181V72.7513C31.5181 72.3127 31.4975 72.0393 31.451 71.931C31.4046 71.8174 31.3117 71.7246 31.1673 71.642C31.028 71.5595 30.8423 71.5182 30.6049 71.5182H30.3263V71.3015H34.753V71.5182H34.4796C34.2319 71.5182 34.0307 71.5646 33.8862 71.6524C33.7779 71.7091 33.6902 71.8123 33.6283 71.9567C33.5818 72.0548 33.5612 72.3179 33.5612 72.7513V78.3594C33.5612 78.798 33.5818 79.0714 33.6283 79.1797C33.6747 79.2881 33.7676 79.3861 33.912 79.4635C34.0513 79.5512 34.2422 79.5873 34.4796 79.5873H34.753V79.8092H30.3263V79.5873H30.6049C30.8526 79.5873 31.0486 79.546 31.1931 79.4583C31.3066 79.3964 31.3891 79.2984 31.451 79.1539C31.4975 79.0508 31.5181 78.7876 31.5181 78.3594V75.7127H28.5051ZM40.3096 77.3843H37.3326L36.9612 78.215C36.8477 78.4884 36.7858 78.7206 36.7858 78.9011C36.7858 79.1436 36.8838 79.3242 37.0747 79.4377C37.1882 79.5048 37.4668 79.5564 37.9105 79.5873V79.8092H35.0832V79.5873C35.3876 79.5409 35.6404 79.4119 35.8313 79.2055C36.0325 78.9992 36.275 78.5658 36.5588 77.9106L39.5976 71.1313H39.7162L42.7809 78.1014C43.0749 78.767 43.3123 79.1901 43.5032 79.3603C43.6476 79.4945 43.8437 79.5667 44.1068 79.5873V79.8092H39.9948V79.5873H40.1651C40.4953 79.5873 40.7275 79.5409 40.8616 79.448C40.9493 79.381 40.9957 79.2829 40.9957 79.1591C40.9957 79.0817 40.9854 78.9992 40.9596 78.9218C40.9493 78.8857 40.8874 78.7257 40.7739 78.442L40.3096 77.3843ZM40.1083 76.92L38.8392 74.0205L37.539 76.92H40.1083ZM47.4397 71.3015L51.629 76.5691V72.9164C51.629 72.4004 51.5568 72.0548 51.4072 71.8742C51.206 71.6266 50.8706 71.5079 50.396 71.5182V71.3015H53.2078V71.5182C52.8466 71.5646 52.6041 71.6266 52.4803 71.6988C52.3617 71.771 52.2636 71.8948 52.1914 72.0599C52.1243 72.225 52.0882 72.514 52.0882 72.9164V80.0001H51.8767L46.1344 72.9061V78.3336C46.1344 78.8237 46.2479 79.1591 46.4697 79.3294C46.6968 79.5048 46.9547 79.5873 47.2436 79.5873H47.4449V79.8092H44.4164V79.5873C44.8858 79.5873 45.2109 79.4893 45.3966 79.2984C45.5824 79.1075 45.6752 78.7876 45.6752 78.3336V72.3179L45.4946 72.0961C45.3141 71.8639 45.1593 71.7143 45.02 71.642C44.8807 71.5698 44.6846 71.5285 44.4267 71.5182V71.3015H47.4397ZM58.8417 77.3843H55.8648L55.4985 78.215C55.3798 78.4884 55.3231 78.7206 55.3231 78.9011C55.3231 79.1436 55.416 79.3242 55.6069 79.4377C55.7204 79.5048 55.999 79.5564 56.4427 79.5873V79.8092H53.6154V79.5873C53.9198 79.5409 54.1726 79.4119 54.3686 79.2055C54.5647 78.9992 54.8072 78.5658 55.0961 77.9106L58.1298 71.1313H58.2536L61.3182 78.1014C61.6071 78.767 61.8496 79.1901 62.0353 79.3603C62.1798 79.4945 62.381 79.5667 62.639 79.5873V79.8092H58.527V79.5873H58.6973C59.0275 79.5873 59.2596 79.5409 59.3938 79.448C59.4866 79.381 59.5279 79.2829 59.5279 79.1591C59.5279 79.0817 59.5176 78.9992 59.4918 78.9218C59.4866 78.8857 59.4247 78.7257 59.3061 78.442L58.8417 77.3843ZM58.6405 76.92L57.3713 74.0205L56.0764 76.92H58.6405ZM65.9719 71.3015L70.1612 76.5691V72.9164C70.1612 72.4004 70.089 72.0548 69.9394 71.8742C69.7382 71.6266 69.4028 71.5079 68.9282 71.5182V71.3015H71.74V71.5182C71.3788 71.5646 71.1363 71.6266 71.0125 71.6988C70.8938 71.771 70.7958 71.8948 70.7236 72.0599C70.6565 72.225 70.6256 72.514 70.6256 72.9164V80.0001H70.414L64.6717 72.9061V78.3336C64.6717 78.8237 64.7801 79.1591 65.0071 79.3294C65.2289 79.5048 65.4869 79.5873 65.7758 79.5873H65.977V79.8092H62.9485V79.5873C63.418 79.5873 63.7431 79.4893 63.934 79.2984C64.1145 79.1075 64.2074 78.7876 64.2074 78.3336V72.3179L64.032 72.0961C63.8514 71.8639 63.6915 71.7143 63.5522 71.642C63.418 71.5698 63.2168 71.5285 62.9589 71.5182V71.3015H65.9719ZM72.2146 79.8092V79.5873H72.4984C72.7409 79.5873 72.9318 79.5512 73.0659 79.4738C73.1949 79.3964 73.2929 79.2881 73.3548 79.1539C73.3909 79.0662 73.4116 78.8031 73.4116 78.3594V72.7513C73.4116 72.3127 73.3858 72.0393 73.3393 71.931C73.2929 71.8174 73.2001 71.7246 73.0659 71.642C72.9266 71.5595 72.7357 71.5182 72.4984 71.5182H72.2146V71.3015H76.017C77.0334 71.3015 77.8537 71.4408 78.4677 71.7143C79.2261 72.0548 79.7988 72.5655 80.1909 73.2517C80.583 73.9379 80.7739 74.7118 80.7739 75.5786C80.7739 76.177 80.681 76.7291 80.485 77.2347C80.2941 77.7351 80.0464 78.153 79.742 78.4832C79.4376 78.8083 79.0816 79.0714 78.6844 79.2726C78.2871 79.4687 77.797 79.6234 77.2243 79.7318C76.9663 79.7834 76.5691 79.8092 76.017 79.8092H72.2146ZM75.4495 71.7762V78.411C75.4495 78.7618 75.465 78.9785 75.5011 79.0559C75.532 79.1385 75.594 79.1952 75.6713 79.2365C75.7849 79.3036 75.9448 79.3345 76.1615 79.3345C76.858 79.3345 77.3946 79.0972 77.7609 78.6174C78.2665 77.9725 78.5193 76.9716 78.5193 75.6198C78.5193 74.5261 78.3439 73.6593 78.0033 73.0041C77.7299 72.4933 77.3791 72.1476 76.9509 71.9619C76.6516 71.8329 76.1512 71.771 75.4495 71.7762Z" fill="#077FC3"/>
<path d="M63.6449 12.8363C63.5108 10.7313 63.3405 8.64695 62.6079 6.62451C61.5245 3.60634 59.0893 0.969944 55.0392 1.12472C54.9722 1.12472 54.8999 1.09893 54.7761 1.07829C55.9215 0.42822 57.2061 0.448857 58.3464 0H60.601C61.5296 0.35599 62.5409 0.443698 63.4334 0.954467C65.9821 2.40938 67.1945 4.75685 67.8291 7.46548C68.6804 11.0924 68.4792 14.7401 67.9272 18.3928C67.6073 20.5339 67.1326 22.6389 66.5651 24.7284C66.5238 24.878 66.4464 25.0173 66.3794 25.1824C65.1515 24.1815 63.9597 23.2013 62.7524 22.2313C62.4841 22.0146 62.5667 21.7928 62.6286 21.5194C63.2374 18.9346 63.5779 16.3136 63.6088 13.6566C64.7078 13.2851 65.8015 12.9085 66.9005 12.537C65.7809 12.4235 64.7181 12.6557 63.6449 12.8363Z" fill="#EB3338"/>
<path d="M34.3507 46.7639C32.7152 46.0364 31.0797 45.3193 29.4494 44.5764C29.1295 44.4267 29.047 44.499 28.9799 44.8137C28.3453 47.9402 27.979 51.0719 29.1141 54.1623C29.7022 55.7668 30.8476 56.8348 32.6636 57.2321C31.6266 57.7996 30.667 58.1349 29.6042 58.2072C28.3453 58.2949 27.5095 57.7325 26.9368 56.6646C26.23 55.3541 26.0856 53.9043 25.9824 52.4701C25.8327 50.3238 26.0649 48.1827 26.3693 46.0571C26.4828 45.2935 26.5912 44.5248 26.7563 43.7664C26.8698 43.2556 26.5344 43.1163 26.2042 42.946C22.99 41.228 19.8583 39.381 16.933 37.1986C13.4969 34.6396 10.2981 31.833 7.78554 28.3298C6.21195 26.1423 4.93245 23.8206 4.65385 21.0552C4.34429 17.9803 5.52061 15.6225 7.96095 13.8426C10.4787 12.011 13.4298 11.4022 16.448 10.9946C15.4058 11.5931 14.3378 12.1245 13.4401 12.9294C10.9998 15.1221 10.2156 17.8358 10.9018 20.9985C11.6137 24.3107 13.5278 26.9523 15.7721 29.3617C20.173 34.0927 25.5077 37.5391 31.2139 40.4644C35.6715 42.75 40.2994 44.6073 45.1182 45.9797C48.4098 46.9187 51.7582 47.6358 55.1685 47.9557C59.4249 48.3478 63.6762 48.3839 67.8242 47.0477C69.8157 46.4028 71.6369 45.4586 73.0093 43.8283C74.5107 42.0483 74.8718 40.191 74.4694 37.0799C75.1401 38.1376 75.6354 39.2829 75.9037 40.5057C77.0439 45.6701 74.3765 48.8792 69.9963 50.5869C65.8173 52.2173 61.437 52.403 57.0207 52.1141C55.8186 52.0315 54.6113 51.9748 53.4246 51.7478C53.0119 51.6652 52.852 51.9438 52.6559 52.1966C50.4426 55.1374 48.028 57.9079 45.3503 60.4308C42.1155 63.4748 38.6536 66.2144 34.4746 67.8705C32.3954 68.6908 30.2594 69.2377 27.9739 68.8456C25.0021 68.34 23.1035 66.5497 21.9272 63.8824C20.7818 61.2769 20.5599 58.5116 20.6064 55.7101C20.6167 55.1168 20.6115 54.5286 20.6838 53.925C21.0398 54.9672 21.2255 56.0454 21.6124 57.0721C23.4801 62.0302 27.6643 63.7998 32.545 62.4429C35.9604 61.4936 38.8393 59.5434 41.4912 57.2372C41.5428 57.196 41.5634 57.1082 41.5944 57.0412L41.5892 57.0515C42.3425 56.7213 42.8326 56.0661 43.4156 55.5295C44.9686 54.0952 46.3822 52.5268 47.7959 50.8139C44.9686 50.2206 42.3167 49.4312 39.6596 48.6677C37.9571 47.8473 36.1307 47.3675 34.3507 46.7639Z" fill="#EB3338"/>
<path d="M63.645 12.8358C64.7182 12.6553 65.781 12.4231 66.9005 12.5366C65.8016 12.9081 64.7078 13.2847 63.6089 13.6562C59.3061 15.1008 55.1477 16.8085 51.8612 20.095C51.6548 20.3013 51.4691 20.5335 51.2782 20.7553C50.4269 21.488 49.7149 22.3392 49.0081 23.206C45.1438 27.7204 42.3062 32.7816 40.8874 38.5858C40.6294 39.6486 40.423 40.7321 40.4385 41.8361C40.4437 42.2541 40.4024 42.5017 39.8504 42.2695C37.9569 41.4802 36.048 40.7269 34.1339 39.9788C33.7727 39.8395 33.685 39.6228 33.6644 39.2617C33.5664 37.3269 33.4993 35.3974 33.6334 33.4626C33.6799 32.8487 33.6386 32.2296 33.6386 31.6156C33.7057 29.3146 33.814 27.0187 33.6902 24.7177C33.7624 22.4992 33.5818 20.3116 32.9834 18.1654C32.7254 17.2058 32.4674 16.2461 32.2095 15.2917C31.2963 11.902 29.7743 8.78065 28.1027 5.71604C28.1543 5.67993 28.2058 5.63865 28.2574 5.60254C29.7175 7.50631 31.0435 9.51327 32.6532 11.2984C34.6601 13.5272 36.7342 15.6734 39.6182 16.793C40.5366 17.2212 41.4859 17.5102 42.5229 17.3812C44.5092 17.3399 46.4078 16.7827 48.3322 16.37C53.2439 15.3071 58.0988 13.9915 63.0362 13.0267C63.2426 12.9855 63.4438 12.8978 63.645 12.8358Z" fill="#027CC1"/>
<path d="M49.0083 23.207C49.7151 22.3402 50.4271 21.489 51.2784 20.7563C55.3078 22.7117 59.0741 25.0901 62.5205 27.9639C64.6255 29.718 66.5757 31.6218 68.1183 33.9073C68.5827 34.5987 68.9644 35.3365 69.2688 36.1052C70.0634 38.0967 69.5681 39.9231 67.8758 41.4399L67.8862 41.4554C67.9532 39.8612 67.8294 38.3134 66.9988 36.8843C66.1991 35.5067 65.1982 34.2891 64.1405 33.118C63.7897 32.731 63.671 32.9838 63.5523 33.2882C62.4637 35.9969 61.1584 38.6023 59.7757 41.1665C59.5591 41.5637 59.3372 41.961 59.1102 42.3531C58.2383 43.8441 58.2022 43.8544 56.4686 43.6377C55.6432 43.5294 54.8228 43.4056 53.9922 43.3643C53.3989 43.3333 53.2957 43.194 53.6259 42.673C54.2656 41.6566 54.8744 40.6144 55.4729 39.5722C57.2116 36.5592 58.7026 33.4224 59.9821 30.1823C60.173 29.6974 59.9873 29.5116 59.6622 29.2743C57.2013 27.5047 54.5907 25.9775 51.8923 24.6052C50.943 24.1202 49.9731 23.6713 49.0083 23.207Z" fill="#EB3439"/>
<path d="M48.3014 11.7377C47.4398 14.178 45.8765 15.3647 43.5755 15.3079C41.2899 15.2563 39.3242 13.1875 39.3036 10.8245C39.2881 8.37901 41.1093 6.39269 43.4465 6.24307C45.3915 6.11924 46.7587 7.0376 47.8474 8.53379C48.3426 9.55016 48.4819 10.6181 48.3014 11.7377Z" fill="#027CC1"/>
<path d="M32.2094 15.2926C32.4674 16.2471 32.7253 17.2067 32.9833 18.1663C30.058 17.8361 27.1378 17.3873 24.1764 17.7278C21.9837 17.9754 19.8374 18.3417 18.0678 19.8379C17.2681 20.5086 16.9018 21.4115 16.5767 22.3866C15.9783 21.623 15.6068 20.8079 15.3746 19.9256C14.9774 18.4294 15.5449 17.2531 17.0927 16.438C18.6301 15.6228 20.3121 15.3287 22.0198 15.143C25.4249 14.7715 28.8197 14.9314 32.2094 15.2926Z" fill="#EB3439"/>
<path d="M34.3507 46.7642C36.1307 47.3678 37.9571 47.8476 39.6596 48.6679C40.1652 51.4952 40.9391 54.2606 41.5892 57.0518L41.5944 57.0414C40.6554 56.6545 40.1291 55.8187 39.541 55.0809C37.73 52.7954 36.141 50.3602 34.7531 47.796C34.5777 47.4761 34.4848 47.1098 34.3507 46.7642Z" fill="#057EC2"/>
<path d="M48.3014 11.737C48.482 10.6174 48.3427 9.54945 47.8474 8.53307C49.4984 7.38255 51.2061 6.3765 53.244 6.05662C55.1014 5.76254 56.3912 6.6293 57.6346 8.07906C53.9921 7.70243 51.3609 9.5185 48.7709 11.4481C48.6265 11.5564 48.4614 11.639 48.3014 11.737Z" fill="#EB3439"/>
<path d="M33.6903 24.7183C33.8141 27.0193 33.7057 29.3152 33.6387 31.6162C32.9576 32.7667 32.4778 34.0101 31.9464 35.2329C31.7813 35.6198 31.642 35.692 31.3273 35.4341C31.3067 35.4186 31.2809 35.4083 31.2602 35.3928C30.6411 34.9697 29.7589 34.6808 29.4854 34.0978C29.2275 33.5509 29.8569 32.7822 30.1149 32.1218C31.1054 29.5577 32.2302 27.0554 33.6903 24.7183Z" fill="#EB3439"/>
<path d="M42.523 17.3818C41.486 17.5108 40.5366 17.2219 39.6183 16.7936C40.6501 16.675 41.5633 17.1342 42.523 17.3818Z" fill="#EB3439"/>
<path d="M27.9481 5.42721C27.8913 5.35498 27.8346 5.27759 27.783 5.20536C27.9171 5.12282 28.0151 5.15893 28.077 5.29823C28.0306 5.34466 27.9893 5.38594 27.9481 5.42721Z" fill="#027CC1"/>
<path d="M28.0767 5.29834C28.216 5.34993 28.2367 5.47891 28.2573 5.60274C28.2057 5.63885 28.1541 5.68013 28.1025 5.71624C28.0509 5.62337 27.9993 5.52535 27.9478 5.42732C27.989 5.38605 28.0303 5.34477 28.0767 5.29834Z" fill="#027CC1"/>
<path d="M67.8757 41.4395C67.8499 41.4498 67.8292 41.4652 67.8034 41.4756C67.7931 41.4807 67.7777 41.4704 67.7673 41.4652C67.8034 41.4601 67.8447 41.4549 67.886 41.4498C67.886 41.4549 67.8757 41.4395 67.8757 41.4395Z" fill="#EB3439"/>
</svg>
