<svg width="309" height="279" viewBox="0 0 309 279" fill="none" xmlns="http://www.w3.org/2000/svg">
<path d="M35.8666 70.5422C35.9025 80.6266 38.7786 94.8229 45.2827 110.356C54.4295 132.215 62.7891 155.547 53.9634 169.838C48.7159 178.33 41.7521 182.942 35.0414 183.554C32.8712 184.089 30.6234 184.403 28.2943 184.403C14.6327 184.403 3.25034 174.667 0.688412 161.756C-0.244415 158.598 -0.160389 155.304 0.529461 151.757C0.824348 149.937 1.28728 148.185 1.91237 146.502C6.1521 133.305 16.2286 116.09 19.1823 88.7481C19.9016 75.3695 20.2869 67.8132 26.6904 60.0268C28.4201 57.7839 30.4345 55.7866 32.6957 54.0783C33.5509 53.4211 34.5319 52.9298 35.4615 52.363L31.4942 56.3212C28.7765 59.0421 28.7765 63.4563 31.4942 66.174L35.8666 70.5422ZM28.8547 174.194C29.2432 175.434 32.0417 176.231 33.2726 175.85C39.9774 173.805 44.5147 170.081 47.2131 165.782C49.9302 161.486 50.8668 156.726 50.8668 152.515C50.8668 149.717 50.4617 147.142 49.8398 145.01C49.4737 143.77 48.178 143.057 46.9343 143.42C45.6841 143.783 44.9717 145.086 45.3341 146.329C45.8328 148.011 46.1893 150.181 46.1759 152.515C46.1887 156.042 45.1558 158.236 43.0145 161.592C40.877 164.949 36.0122 167.861 30.2397 169.652C29.0098 170.033 28.4816 172.956 28.8547 174.194Z" fill="#FFF7F0"/>
<path d="M291.016 112.281C309.802 116.106 314.57 139.584 299.606 154.546L241.81 212.351L184.001 270.149C169.043 285.115 145.561 280.341 141.749 261.553L116.754 138.649L58.9736 80.8685L57.5099 82.3312C54.7858 85.0489 50.3679 85.0505 47.6572 82.3312L35.8671 70.5416L31.4946 66.174C28.7769 63.4563 28.7769 59.0416 31.4946 56.3212L35.4619 52.363L58.6402 29.1815L85.7794 2.04226C88.5035 -0.680224 92.9215 -0.680214 95.6424 2.03906L111.792 18.1963C114.512 20.9139 114.512 25.3303 111.792 28.0506L110.328 29.5149L168.105 87.2934L291.016 112.281ZM87.9009 96.018C89.9576 98.0779 93.3004 98.0779 95.3635 96.018C97.4299 93.9549 97.4299 90.6137 95.3635 88.5554C93.3004 86.4922 89.9576 86.4923 87.9009 88.5522C85.8372 90.6121 85.8372 93.9543 87.9009 96.018ZM110.438 24.1208C111.432 23.1184 111.432 21.4925 110.438 20.4885L110.395 20.4526C109.394 19.4486 107.762 19.4486 106.765 20.4526L78.3201 48.8907L49.9146 77.3015C48.91 78.3077 48.91 79.933 49.9146 80.937L49.9467 80.9713C50.9512 81.9753 52.583 81.9769 53.5806 80.9713L81.9898 52.5605L110.438 24.1208ZM153.464 240.921C156.451 255.634 174.835 259.371 186.556 247.65L231.581 202.622L277.108 157.105C288.827 145.381 285.096 126.992 270.378 124.004L236.31 117.074C237.308 133.802 228.061 150.182 204.377 153.833C196.672 155.258 190.524 155.686 185.141 156.168C170.404 157.503 161.376 159.323 141.79 183.521L153.464 240.921ZM127.377 79.7291C124.333 76.6877 119.406 76.6845 116.358 79.7259C115.011 81.0767 114.305 82.8 114.143 84.5683C113.948 86.7807 114.674 89.051 116.365 90.7416C118.049 92.4355 120.323 93.1532 122.538 92.9637C124.306 92.8096 126.036 92.0956 127.384 90.7416C130.429 87.7034 130.429 82.7706 127.377 79.7291ZM160.24 130.827C159.903 128.37 158.821 126.004 156.942 124.113C155.044 122.223 152.68 121.149 150.231 120.804C146.675 120.305 142.937 121.38 140.197 124.113C135.584 128.738 135.575 136.228 140.197 140.848C144.822 145.473 152.311 145.473 156.942 140.848C159.67 138.116 160.745 134.38 160.24 130.827Z" fill="#81522E"/>
<path d="M270.378 124.004C285.095 126.992 288.827 145.381 277.108 157.104L231.581 202.621L186.556 247.65C174.835 259.37 156.45 255.634 153.464 240.921L141.791 183.521C161.377 159.323 170.404 157.503 185.141 156.168C190.525 155.686 196.672 155.258 204.378 153.833C228.061 150.181 237.308 133.802 236.311 117.074L270.378 124.004Z" fill="#FFF7F0"/>
<path d="M150.232 120.804C152.68 121.149 155.044 122.223 156.943 124.113C158.821 126.004 159.903 128.37 160.24 130.827C160.745 134.38 159.67 138.116 156.943 140.848C152.311 145.473 144.822 145.473 140.197 140.848C135.575 136.228 135.585 128.738 140.197 124.113C142.937 121.38 146.675 120.305 150.232 120.804Z" fill="white"/>
<path d="M127.377 79.7291C130.429 82.7706 130.429 87.7034 127.383 90.7416C126.036 92.0956 124.306 92.8096 122.538 92.9637C120.323 93.1531 118.049 92.4355 116.364 90.7416C114.674 89.051 113.948 86.7807 114.142 84.5683C114.304 82.8 115.01 81.0767 116.358 79.7259C119.406 76.6844 124.333 76.6876 127.377 79.7291Z" fill="#FFF7F0"/>
<path d="M95.3636 88.5554C97.4299 90.6137 97.4299 93.9549 95.3636 96.018C93.3004 98.0779 89.9577 98.0779 87.901 96.018C85.8378 93.9549 85.8378 90.6121 87.901 88.5522C89.9577 86.4917 93.3004 86.4917 95.3636 88.5554Z" fill="white"/>
<path d="M106.765 20.4526C107.762 19.4486 109.395 19.4486 110.395 20.4526L110.438 20.4885C111.432 21.4925 111.432 23.1184 110.438 24.1208L81.9899 52.5605L53.5806 80.9713C52.5831 81.9769 50.9507 81.9753 49.9467 80.9713L49.9146 80.937C48.9101 79.933 48.9101 78.3071 49.9146 77.3015L78.3201 48.8907L106.765 20.4526Z" fill="#F0EDE2"/>
<path d="M46.9342 143.42C48.1779 143.058 49.4736 143.77 49.8397 145.011C50.4616 147.142 50.8667 149.717 50.8667 152.516C50.8667 156.726 49.9301 161.486 47.213 165.783C44.5146 170.081 39.9773 173.805 33.2725 175.851C32.0416 176.231 29.2431 175.435 28.8546 174.194C28.4815 172.957 29.0097 170.033 30.2407 169.653C36.0126 167.862 40.8775 164.95 43.0155 161.593C45.1563 158.237 46.1897 156.043 46.1769 152.515C46.1897 150.182 45.8338 148.012 45.335 146.329C44.9716 145.086 45.684 143.783 46.9342 143.42Z" fill="white"/>
</svg>
