<svg width="267" height="323" viewBox="0 0 267 323" fill="none" xmlns="http://www.w3.org/2000/svg">
<path d="M173.954 63.6253L206.302 74.2007L218.357 33.6901L219.136 31.0664L220.301 27.1533L221.083 24.5281L223.893 15.0792L224.25 13.8855L195.252 4.40509L194.83 5.57671L191.493 14.8541L190.567 17.4328L189.186 21.2739L188.259 23.8494L173.954 63.6253Z" fill="#E4EFE7"/>
<path d="M190.567 17.4328L220.301 27.1534L221.083 24.5281L191.493 14.8541L190.567 17.4328Z" fill="#B17F59"/>
<path d="M188.259 23.8494L218.357 33.6901L219.136 31.0664L189.186 21.2739L188.259 23.8494Z" fill="#B17F59"/>
<path d="M194.794 5.56488L223.787 15.0437C224.951 15.4245 226.204 14.7893 226.585 13.624L226.99 12.3876C227.37 11.2231 226.735 9.97011 225.57 9.58931L196.577 0.110478C195.413 -0.270319 194.16 0.36487 193.779 1.53017L193.374 2.76657C192.994 3.93108 193.63 5.18408 194.794 5.56488Z" fill="#B17F59"/>
<path d="M169.001 154.404L168.906 155.31L166.093 182.142L165.67 186.151L165.672 186.152L165.583 186.996C165.229 190.362 167.306 193.424 170.397 194.434C170.864 194.587 171.354 194.692 171.86 194.745C175.734 195.151 179.206 192.34 179.612 188.467L179.716 187.473L180.136 183.465L183.029 155.875C183.437 152.002 180.624 148.531 176.751 148.127C173.931 147.832 171.327 149.241 169.962 151.523C169.451 152.374 169.112 153.35 169.001 154.404Z" fill="#B17F59"/>
<path d="M130.165 181.112C130.605 181.368 131.061 181.573 131.529 181.726C134.62 182.736 138.105 181.493 139.808 178.568L140.204 177.89L142.233 174.406L154.975 152.533L156.304 150.252C156.958 149.126 157.267 147.896 157.261 146.681C157.252 144.263 155.999 141.911 153.758 140.606C150.394 138.645 146.075 139.784 144.115 143.15L130.205 167.028L128.175 170.511L127.619 171.466C125.658 174.832 126.799 179.15 130.165 181.112Z" fill="#B17F59"/>
<path d="M156.236 148.673L146.28 179.126C146.152 179.519 146.061 179.913 146.004 180.308C145.516 183.64 147.482 186.939 150.792 188.022C154.102 189.104 157.637 187.603 159.212 184.626C159.4 184.274 159.559 183.903 159.688 183.51L169.645 153.056C169.812 152.547 169.916 152.034 169.964 151.522C170.267 148.312 168.326 145.205 165.133 144.161C162.164 143.19 159.017 144.297 157.262 146.682C156.826 147.271 156.476 147.939 156.236 148.673Z" fill="#B17F59"/>
<path d="M166.094 182.142L165.671 186.151H165.673L179.717 187.472L180.136 183.464L166.094 182.142Z" fill="#E4EFE7"/>
<path d="M147.157 176.445L146.28 179.126C146.152 179.519 146.061 179.913 146.004 180.308L159.212 184.626C159.399 184.274 159.559 183.903 159.687 183.51L160.564 180.829L147.157 176.445Z" fill="#E4EFE7"/>
<path d="M128.175 170.512L140.203 177.89L142.232 174.406L130.205 167.029L128.175 170.512Z" fill="#E4EFE7"/>
<path d="M191.323 147.635L185.431 165.654C184.846 167.444 182.528 168.292 180.253 167.549L139.074 154.086C136.799 153.342 135.43 151.288 136.015 149.498L141.907 131.48L191.323 147.635Z" fill="#E4EFE7"/>
<path d="M142.642 124.964L194.938 142.064L192.129 150.653L139.834 133.553L142.642 124.964Z" fill="#B17F59"/>
<path opacity="0.3" d="M144.701 125.644L192.899 141.402L208.273 82.2496L208.962 79.5958L209.991 75.6394L210.681 72.984L212.969 64.1815C213.166 63.4231 212.738 62.6401 211.991 62.396L175.968 50.619C175.221 50.3748 174.414 50.7549 174.124 51.4825L170.771 59.9366L169.759 62.4869L168.252 66.2877L167.24 68.8356L144.701 125.644Z" fill="url(#paint0_radial_31_2134)"/>
<path d="M169.758 62.4861L209.991 75.6393L210.681 72.984L170.77 59.9358L169.758 62.4861Z" fill="#B17F59"/>
<path d="M167.24 68.834L208.274 82.2496L208.962 79.5966L168.251 66.2861L167.24 68.834Z" fill="#B17F59"/>
<path d="M187.165 252.803L181.206 228.518H169.709L165.45 257.049C165.45 257.049 182.477 258.776 187.165 252.803Z" fill="#B17F59"/>
<path d="M156.939 274.696C159.006 284.171 168.363 290.176 177.834 288.108L178.614 287.941L179.19 287.812L180.252 287.561C180.939 287.395 181.601 287.226 182.255 287.054C183.56 286.707 184.829 286.345 186.085 285.967C186.553 285.826 187.017 285.681 187.482 285.534C189.503 284.896 191.493 284.214 193.464 283.486C198.306 281.693 203.034 279.629 207.667 277.273C212.296 274.916 216.82 272.262 221.202 269.287C225.582 266.308 229.815 263.002 233.822 259.346C237.83 255.695 241.608 251.685 245.059 247.351C248.512 243.018 251.633 238.354 254.332 233.44C257.031 228.525 259.315 223.368 261.135 218.082C262.047 215.438 262.843 212.763 263.537 210.072C263.701 209.401 263.877 208.727 264.03 208.053L264.266 207.04L264.479 206.035L264.9 204.024C265.035 203.352 265.149 202.675 265.272 202.001C265.529 200.653 265.719 199.293 265.922 197.934C266.03 197.256 266.097 196.573 266.183 195.891C266.261 195.209 266.355 194.528 266.416 193.844C266.542 192.478 266.682 191.11 266.755 189.739C266.796 189.055 266.849 188.367 266.877 187.684L266.949 185.627C266.981 184.94 266.981 184.256 266.989 183.571C266.991 182.885 267.006 182.199 266.997 181.514C266.972 180.147 266.96 178.776 266.887 177.412C266.78 174.678 266.551 171.961 266.253 169.258C265.04 158.442 262.361 147.976 258.682 138.096C257.757 135.628 256.776 133.192 255.738 130.786C254.696 128.387 253.593 126.022 252.444 123.689C250.144 119.022 247.623 114.504 244.922 110.111C242.219 105.718 239.33 101.461 236.233 97.3068C235.351 96.1297 234.455 94.9604 233.536 93.7943C232.834 92.9071 232.122 92.0215 231.391 91.1383C230.546 90.1159 229.683 89.0976 228.776 88.0634C228.323 87.546 227.857 87.0253 227.37 86.4905L226.606 85.6641L226.186 85.2217L225.949 84.9752L225.589 84.6126C216.111 75.43 200.983 75.6686 191.798 85.1474C182.616 94.6255 182.854 109.753 192.333 118.938L192.294 118.897L192.276 118.876L192.268 118.868C192.268 118.868 192.27 118.868 192.272 118.87L192.329 118.919L192.497 119.074L192.897 119.45C193.181 119.722 193.477 120.014 193.78 120.32C194.386 120.927 195.009 121.574 195.628 122.236C196.869 123.561 198.109 124.958 199.32 126.386C200.452 127.724 201.561 129.091 202.64 130.484C203.878 132.073 205.076 133.693 206.235 135.338C210.579 141.514 214.347 148.029 217.32 154.712C220.291 161.396 222.479 168.25 223.69 175.131C224.902 182.012 225.18 188.921 224.391 195.764C224.338 196.191 224.299 196.62 224.24 197.047L224.054 198.328L223.961 198.968L223.855 199.595C223.789 200.014 223.705 200.428 223.632 200.845C223.31 202.5 222.934 204.138 222.486 205.745C221.598 208.966 220.443 212.082 219.026 215.091C216.198 221.104 212.28 226.691 207.389 231.726C202.508 236.765 196.662 241.238 190.217 245.02C186.995 246.91 183.621 248.63 180.171 250.146C178.447 250.905 176.701 251.609 174.97 252.25C174.106 252.569 173.242 252.871 172.404 253.149C171.987 253.288 171.573 253.419 171.183 253.541L170.625 253.709L170.388 253.782L170.297 253.81L170.274 253.817L170.352 253.804C162.772 255.457 157.41 261.778 156.631 269.09C156.436 270.914 156.526 272.802 156.939 274.696Z" fill="#C9C6C5"/>
<path d="M93.3244 255.157L146.368 262.048C147.943 262.253 149.384 261.142 149.589 259.568L150.488 252.649C150.693 251.074 149.582 249.633 148.008 249.428L94.9645 242.537C93.39 242.333 91.9482 243.443 91.7436 245.017L90.8445 251.936C90.6399 253.511 91.7499 254.953 93.3244 255.157Z" fill="#E4EFE7"/>
<path d="M165.578 269.438C167.704 269.438 169.555 267.867 169.85 265.703C170.171 263.34 168.517 261.166 166.155 260.845L130.706 256.026C128.343 255.705 126.169 257.36 125.848 259.721C125.528 262.084 127.182 264.258 129.543 264.579L164.992 269.398C165.189 269.425 165.385 269.438 165.578 269.438Z" fill="#C9C6C5"/>
<path d="M192.332 118.936L192.293 118.895L192.275 118.873L192.268 118.865C192.268 118.865 192.269 118.865 192.271 118.868L192.328 118.917L192.497 119.071L192.896 119.448C193.18 119.72 193.476 120.012 193.78 120.317C194.385 120.925 195.008 121.571 195.627 122.233C196.869 123.559 198.108 124.956 199.319 126.384C200.451 127.722 201.56 129.089 202.639 130.482C204.2 130.755 205.809 130.898 207.448 130.898C222.754 130.898 235.165 118.488 235.165 103.181C235.165 99.8863 234.59 96.727 233.535 93.7943C232.833 92.9071 232.121 92.0215 231.39 91.1383C230.545 90.1159 229.682 89.0976 228.775 88.0634C228.322 87.546 227.856 87.0253 227.369 86.4905L226.605 85.6641L226.185 85.2217L225.948 84.9752L225.588 84.6126C216.11 75.43 200.982 75.6686 191.797 85.1474C182.615 94.6231 182.853 109.751 192.332 118.936Z" fill="#B17F59"/>
<path d="M232.913 145.824C227.675 145.824 223.428 141.577 223.428 136.339C223.428 131.101 227.675 126.855 232.913 126.855C238.151 126.855 242.397 131.101 242.397 136.339C242.397 141.577 238.151 145.824 232.913 145.824Z" fill="#B17F59"/>
<path d="M232.325 143.504C227.087 143.504 222.84 139.258 222.84 134.02C222.84 128.782 227.087 124.535 232.325 124.535C237.563 124.535 241.809 128.782 241.809 134.02C241.809 139.258 237.563 143.504 232.325 143.504Z" fill="#E4EFE7"/>
<path d="M232.325 138.915C229.621 138.915 227.43 136.723 227.43 134.02C227.43 131.316 229.621 129.125 232.325 129.125C235.028 129.125 237.22 131.316 237.22 134.02C237.22 136.723 235.028 138.915 232.325 138.915Z" fill="#B17F59"/>
<path d="M156.939 274.696C159.006 284.171 168.363 290.176 177.834 288.108L178.614 287.941L179.19 287.812L180.252 287.561C180.939 287.395 181.601 287.226 182.255 287.054C183.56 286.707 184.829 286.345 186.085 285.967C186.553 285.826 187.017 285.681 187.482 285.534C188.455 281.485 192.384 262.719 181.672 262.201C181.672 262.201 179.944 274.41 166.43 274.478C160.202 274.51 157.612 271.904 156.631 269.086C156.436 270.914 156.526 272.802 156.939 274.696Z" fill="#B17F59"/>
<path d="M215.836 253.624L252.56 307.161C254.729 310.323 252.465 314.621 248.631 314.621H9.16766C6.5005 314.621 4.58469 312.054 5.34233 309.497L12.6312 284.904C13.1328 283.211 14.69 282.048 16.4565 282.048H174.466C180.976 282.048 185.58 275.678 183.536 269.497L181.066 262.027C179.023 255.846 183.626 249.476 190.137 249.476H207.958C211.108 249.475 214.054 251.027 215.836 253.624Z" fill="#C9C6C5"/>
<path d="M191.354 266.459C190.23 261.721 193.159 256.969 197.897 255.844C202.635 254.72 207.387 257.649 208.512 262.387C209.636 267.125 206.707 271.878 201.969 273.002C197.231 274.126 192.479 271.197 191.354 266.459Z" fill="#B17F59"/>
<path d="M199.947 268.963C202.456 268.963 204.497 266.922 204.497 264.413C204.497 261.903 202.456 259.862 199.947 259.862C197.438 259.862 195.396 261.903 195.396 264.413C195.396 266.922 197.438 268.963 199.947 268.963Z" fill="#B17F59"/>
<path d="M2.8553 322.05H252.502C254.079 322.05 255.357 320.771 255.357 319.194V308.466C255.357 306.889 254.079 305.61 252.502 305.61H2.8553C1.2784 305.61 0.000106812 306.889 0.000106812 308.466V319.194C0.000106812 320.77 1.2784 322.05 2.8553 322.05Z" fill="#E4EFE7"/>
<path d="M89.5504 218.745C89.3205 220.333 110.741 224.746 137.393 228.599C164.044 232.452 185.837 234.287 186.067 232.698C186.296 231.109 164.876 226.698 138.224 222.844C111.573 218.991 89.7803 217.156 89.5504 218.745Z" fill="#E4EFE7"/>
<path d="M90.6461 211.151L187.161 225.106L186.064 232.691L89.5494 218.736L90.6461 211.151Z" fill="#E4EFE7"/>
<path d="M90.6468 211.159C90.4169 212.748 111.837 217.161 138.489 221.014C165.141 224.867 186.933 226.702 187.163 225.113C187.393 223.524 165.973 219.113 139.321 215.259C112.669 211.406 90.8767 209.571 90.6468 211.159Z" fill="#B17F59"/>
<path d="M184.901 119.903C174.077 109.079 174.077 91.5297 184.901 80.7057C195.725 69.8818 213.274 69.8818 224.098 80.7057C234.922 91.5297 234.922 109.079 224.098 119.903C213.274 130.727 195.725 130.727 184.901 119.903Z" fill="#E4EFE7"/>
<path d="M190.594 103.614C188.765 95.9288 193.513 88.2157 201.198 86.3867C208.884 84.5578 216.597 89.3055 218.426 96.9911C220.255 104.677 215.507 112.39 207.822 114.219C200.136 116.048 192.423 111.3 190.594 103.614Z" fill="#B17F59"/>
<defs>
<radialGradient id="paint0_radial_31_2134" cx="0" cy="0" r="1" gradientUnits="userSpaceOnUse" gradientTransform="translate(103.105 81.7825) rotate(180) scale(135.755 79.1814)">
<stop offset="0.1906" stop-color="#FEF4ED"/>
<stop offset="1" stop-color="#B17F59"/>
</radialGradient>
</defs>
</svg>
