<svg width="1440" height="140" viewBox="0 0 1440 140" fill="none" xmlns="http://www.w3.org/2000/svg">
<path opacity="0.3" d="M1438.28 65.1355H1378.27L1369.06 29.3554C1368.95 28.9342 1368.23 28.5642 1367.35 28.6177C1366.48 28.6201 1365.75 28.9389 1365.65 29.3624L1346.9 108.36L1330.61 65.8196C1330.46 65.4217 1329.75 65.1332 1328.92 65.1332H1308.43C1307.62 65.1332 1306.92 65.4101 1306.75 65.7987L1300.41 80.2541L1297.33 65.8871C1297.24 65.4589 1296.5 65.1332 1295.62 65.1332H1277.41L1268.27 40.1108C1268.12 39.6943 1267.37 39.4011 1266.49 39.4174C1265.63 39.4383 1264.93 39.7688 1264.86 40.19L1250.77 126.089L1238.4 0.837924C1238.35 0.398119 1237.62 0.0467367 1236.72 0.0374286C1236.7 0.0374286 1236.69 0.0374286 1236.68 0.0374286C1235.79 0.0374286 1235.05 0.370195 1234.97 0.805346L1223.35 65.1308H1090.95L1081.74 29.3508C1081.63 28.9296 1080.96 28.5596 1080.03 28.6131C1079.16 28.6154 1078.44 28.9342 1078.33 29.3577L1059.58 108.355L1043.3 65.815C1043.14 65.417 1042.43 65.1285 1041.61 65.1285H1021.11C1020.3 65.1285 1019.6 65.4054 1019.43 65.794L1013.09 80.2471L1010.01 65.8825C1009.92 65.4543 1009.18 65.1285 1008.3 65.1285H990.093L980.95 40.1062C980.796 39.6896 980.052 39.3965 979.173 39.4127C978.31 39.4337 977.615 39.7641 977.544 40.1853L963.455 126.084L951.078 0.835598C951.033 0.395793 950.301 0.0444109 949.396 0.0351029C948.577 -0.0509964 947.728 0.360872 947.65 0.800676L936.028 65.1262H803.631L794.427 29.3461C794.318 28.9249 793.691 28.5549 792.715 28.6084C791.844 28.6108 791.119 28.9295 791.018 29.3531L772.265 108.35L755.979 65.8103C755.825 65.4124 755.116 65.1239 754.289 65.1239H733.79C732.983 65.1239 732.281 65.4008 732.112 65.7894L725.766 80.2424L722.69 65.8778C722.6 65.4496 721.861 65.1239 720.982 65.1239H702.777L693.634 40.1015C693.48 39.685 692.736 39.3918 691.858 39.4081C690.994 39.429 690.299 39.7594 690.228 40.1806L676.139 126.08L663.762 0.830929C663.717 0.391124 662.985 0.0397595 662.08 0.0304515C661.194 -0.0556479 660.413 0.35622 660.334 0.796025L648.712 65.1215H516.315L507.112 29.3414C507.003 28.9203 506.424 28.5503 505.399 28.6038C504.528 28.6061 503.803 28.9249 503.702 29.3484L484.949 108.346L468.663 65.8057C468.509 65.4077 467.8 65.1192 466.974 65.1192H446.475C445.667 65.1192 444.965 65.3961 444.796 65.7847L438.45 80.2378L435.375 65.8731C435.285 65.445 434.545 65.1192 433.666 65.1192H415.458L406.314 40.0969C406.16 39.6803 405.417 39.3871 404.538 39.4034C403.674 39.4244 402.98 39.7548 402.908 40.176L388.819 126.075L376.443 0.823951C376.397 0.384147 375.665 0.0327645 374.76 0.0234565C373.806 -0.0626428 373.093 0.349243 373.014 0.789048L361.392 65.1145H229.015L219.807 29.3345C219.698 28.9133 218.97 28.5968 218.102 28.5968H218.095C217.224 28.5991 216.499 28.9179 216.397 29.3414L197.645 108.339L181.359 65.7987C181.205 65.4007 180.495 65.1122 179.669 65.1122H159.174C158.367 65.1122 157.664 65.3891 157.495 65.7777L151.153 80.2308L148.074 65.8662C147.984 65.438 147.244 65.1122 146.365 65.1122H128.157L119.013 40.0899C118.859 39.6734 118.112 39.3802 117.237 39.3965C116.374 39.4174 115.679 39.7478 115.607 40.169L101.518 126.068L89.1417 0.816974C89.0967 0.37717 88.3644 0.0257873 87.4595 0.0164793C86.5883 -0.0905631 85.7922 0.342266 85.7133 0.782071L74.0914 65.1076H1.71983C0.773546 65.1076 0 65.4846 0 65.9476C0 66.4107 0.769791 66.7877 1.71983 66.7877H75.6685C76.5585 66.7877 77.302 66.4549 77.3808 66.0197L86.93 13.1734L99.3818 139.199C99.4269 139.642 100.167 139.993 101.072 140C101.083 140 101.09 140 101.098 140C101.992 140 102.739 139.663 102.81 139.227L117.973 46.7801L125.029 66.0919C125.175 66.4921 125.889 66.7853 126.719 66.7853H144.814L148.855 85.6434C148.941 86.0553 149.628 86.3741 150.473 86.395C151.341 86.4299 152.066 86.1367 152.246 85.7318L160.56 66.7853H178.242L196.353 114.089C196.514 114.496 197.239 114.831 198.103 114.773C198.951 114.759 199.65 114.442 199.747 114.031L218.17 36.4225L225.793 66.0477C225.902 66.4689 226.63 66.783 227.497 66.783H362.981C363.871 66.783 364.614 66.4502 364.689 66.0151L374.238 13.1711L386.69 139.197C386.735 139.639 387.475 139.991 388.38 139.998C388.391 139.998 388.399 139.998 388.406 139.998C389.3 139.998 390.047 139.66 390.118 139.225L405.281 46.7777L412.337 66.0895C412.484 66.4898 413.197 66.783 414.027 66.783H432.126L436.167 85.6411C436.253 86.053 436.941 86.3718 437.785 86.3927C438.657 86.4253 439.378 86.1344 439.554 85.7295L447.872 66.783H465.554L483.665 114.086C483.823 114.494 484.555 114.829 485.415 114.771C486.263 114.757 486.962 114.44 487.06 114.028L505.482 36.4202L513.105 66.0453C513.214 66.4665 513.942 66.7807 514.81 66.7807H650.293C651.183 66.7807 651.926 66.4479 652.001 66.0128L661.55 13.1664L674.002 139.193C674.047 139.635 674.787 139.986 675.692 139.993C675.703 139.993 675.711 139.993 675.718 139.993C676.612 139.993 677.359 139.656 677.431 139.22L692.594 46.7731L699.653 66.0849C699.799 66.4851 700.513 66.7784 701.343 66.7784H719.439L723.479 85.6364C723.565 86.0483 724.253 86.3671 725.097 86.3881C725.927 86.4206 726.69 86.1297 726.87 85.7248L735.187 66.7784H752.87L770.981 114.082C771.138 114.489 771.874 114.824 772.731 114.766C773.579 114.752 774.278 114.435 774.375 114.024L792.798 36.4155L800.421 66.0407C800.529 66.4619 801.258 66.776 802.125 66.776H937.608C938.498 66.776 939.242 66.4433 939.321 66.0081L948.87 13.1618L961.326 139.188C961.371 139.63 962.11 139.981 963.015 139.988C963.984 139.981 964.683 139.656 964.754 139.216L979.913 46.7684L986.973 66.0802C987.119 66.4805 987.833 66.7737 988.662 66.7737H1006.76L1010.8 85.6318C1010.89 86.0437 1011.57 86.3625 1012.42 86.3834C1013.29 86.4183 1014.01 86.1251 1014.19 85.7202L1022.5 66.7737H1040.18L1058.29 114.077C1058.45 114.484 1059.11 114.819 1060.04 114.761C1060.89 114.747 1061.59 114.431 1061.69 114.019L1080.11 36.4109L1087.73 66.036C1087.84 66.4572 1088.57 66.7714 1089.44 66.7714H1224.92C1225.81 66.7714 1226.55 66.4386 1226.63 66.0034L1236.18 13.1594L1248.63 139.183C1248.68 139.625 1249.41 139.977 1250.32 139.984C1250.33 139.984 1250.34 139.984 1250.35 139.984C1251.24 139.984 1251.99 139.646 1252.06 139.211L1267.22 46.7638L1274.28 66.0756C1274.42 66.4758 1275.14 66.7691 1275.97 66.7691H1294.06L1298.1 85.6271C1298.19 86.039 1298.88 86.3578 1299.72 86.3787C1300.57 86.4113 1301.31 86.1204 1301.49 85.7155L1309.81 66.7691H1327.49L1345.6 114.072C1345.76 114.48 1346.42 114.815 1347.35 114.757C1348.2 114.743 1348.9 114.426 1349 114.014L1367.42 36.4062L1375.04 66.0314C1375.15 66.4526 1375.88 66.7667 1376.75 66.7667H1438.28C1439.23 66.7667 1440 66.3897 1440 65.9267C1440 65.4636 1439.23 65.1355 1438.28 65.1355Z" fill="url(#paint0_radial_28_361)"/>
<defs>
<radialGradient id="paint0_radial_28_361" cx="0" cy="0" r="1" gradientUnits="userSpaceOnUse" gradientTransform="translate(732.506 31.8544) scale(786.404 384.992)">
<stop offset="0.1308" stop-color="white"/>
<stop offset="0.1701" stop-color="#F7F9FA"/>
<stop offset="0.2306" stop-color="#E2E9ED"/>
<stop offset="0.3048" stop-color="#BECFD8"/>
<stop offset="0.3897" stop-color="#8EAABA"/>
<stop offset="0.4837" stop-color="#4F7B95"/>
<stop offset="0.584" stop-color="#044367"/>
<stop offset="0.5887" stop-color="#004065"/>
<stop offset="0.9946"/>
</radialGradient>
</defs>
</svg>
